<?xml version="1.0" encoding="UTF-8" standalone="no"?>
<!DOCTYPE svg PUBLIC "-//W3C//DTD SVG 1.1//EN"
 "http://www.w3.org/Graphics/SVG/1.1/DTD/svg11.dtd">
<!-- Generated by graphviz version 2.40.1 (20161225.0304)
 -->
<!-- Title: structs Pages: 1 -->
<svg width="1583pt" height="686pt"
 viewBox="0.00 0.00 1582.50 686.00" xmlns="http://www.w3.org/2000/svg" xmlns:xlink="http://www.w3.org/1999/xlink">
<g id="graph0" class="graph" transform="scale(1 1) rotate(0) translate(4 682)">
<title>structs</title>
<polygon fill="#ffffff" stroke="transparent" points="-4,4 -4,-682 1578.5,-682 1578.5,4 -4,4"/>
<!-- bold_reference_wfinputnode -->
<g id="node1" class="node">
<title>bold_reference_wfinputnode</title>
<polygon fill="none" stroke="#000000" points="0,-585.5 0,-677.5 242,-677.5 242,-585.5 0,-585.5"/>
<text text-anchor="middle" x="17.5" y="-627.8" font-family="Times,serif" font-size="14.00" fill="#000000">IN</text>
<polyline fill="none" stroke="#000000" points="35,-585.5 35,-677.5 "/>
<text text-anchor="middle" x="79.5" y="-658.8" font-family="Times,serif" font-size="14.00" fill="#000000">inputnode</text>
<polyline fill="none" stroke="#000000" points="35,-647.5 124,-647.5 "/>
<text text-anchor="middle" x="79.5" y="-628.3" font-family="Times,serif" font-size="14.00" fill="#000000">utility</text>
<polyline fill="none" stroke="#000000" points="35,-616.5 124,-616.5 "/>
<text text-anchor="middle" x="79.5" y="-597.3" font-family="Times,serif" font-size="14.00" fill="#000000"> </text>
<polyline fill="none" stroke="#000000" points="124,-585.5 124,-677.5 "/>
<text text-anchor="middle" x="183" y="-662.3" font-family="Times,serif" font-size="14.00" fill="#000000">OUT</text>
<polyline fill="none" stroke="#000000" points="124,-654.5 242,-654.5 "/>
<text text-anchor="middle" x="183" y="-639.3" font-family="Times,serif" font-size="14.00" fill="#000000">bold_file</text>
<polyline fill="none" stroke="#000000" points="124,-631.5 242,-631.5 "/>
<text text-anchor="middle" x="183" y="-616.3" font-family="Times,serif" font-size="14.00" fill="#000000">bold_mask</text>
<polyline fill="none" stroke="#000000" points="124,-608.5 242,-608.5 "/>
<text text-anchor="middle" x="183" y="-593.3" font-family="Times,serif" font-size="14.00" fill="#000000">dummy_scans</text>
</g>
<!-- bold_reference_wfval_bold -->
<g id="node2" class="node">
<title>bold_reference_wfval_bold</title>
<polygon fill="none" stroke="#000000" points="722,-479.5 722,-548.5 950,-548.5 950,-479.5 722,-479.5"/>
<text text-anchor="middle" x="752" y="-527.8" font-family="Times,serif" font-size="14.00" fill="#000000">IN</text>
<polyline fill="none" stroke="#000000" points="722,-514.5 782,-514.5 "/>
<text text-anchor="middle" x="752" y="-493.3" font-family="Times,serif" font-size="14.00" fill="#000000">in_file</text>
<polyline fill="none" stroke="#000000" points="782,-479.5 782,-548.5 "/>
<text text-anchor="middle" x="820" y="-533.3" font-family="Times,serif" font-size="14.00" fill="#000000">val_bold</text>
<polyline fill="none" stroke="#000000" points="782,-525.5 858,-525.5 "/>
<text text-anchor="middle" x="820" y="-510.3" font-family="Times,serif" font-size="14.00" fill="#000000">header</text>
<polyline fill="none" stroke="#000000" points="782,-502.5 858,-502.5 "/>
<text text-anchor="middle" x="820" y="-487.3" font-family="Times,serif" font-size="14.00" fill="#000000"> </text>
<polyline fill="none" stroke="#000000" points="858,-479.5 858,-548.5 "/>
<text text-anchor="middle" x="904" y="-533.3" font-family="Times,serif" font-size="14.00" fill="#000000">OUT</text>
<polyline fill="none" stroke="#000000" points="858,-525.5 950,-525.5 "/>
<text text-anchor="middle" x="904" y="-510.3" font-family="Times,serif" font-size="14.00" fill="#000000">out_file</text>
<polyline fill="none" stroke="#000000" points="858,-502.5 950,-502.5 "/>
<text text-anchor="middle" x="904" y="-487.3" font-family="Times,serif" font-size="14.00" fill="#000000">out_report</text>
</g>
<!-- bold_reference_wfinputnode&#45;&gt;bold_reference_wfval_bold -->
<g id="edge11" class="edge">
<title>bold_reference_wfinputnode:e&#45;&gt;bold_reference_wfval_bold:w</title>
<path fill="none" stroke="#000000" d="M242,-643.5C387.7386,-643.5 416.6826,-591.7835 556,-549 626.5865,-527.3234 643.2398,-499.6194 711.9484,-497.1741"/>
<polygon fill="#000000" stroke="#000000" points="712.0622,-500.6728 722,-497 711.9408,-493.6739 712.0622,-500.6728"/>
</g>
<!-- bold_reference_wfget_dummy -->
<g id="node3" class="node">
<title>bold_reference_wfget_dummy</title>
<polygon fill="none" stroke="#000000" points="299.5,-479.5 299.5,-548.5 546.5,-548.5 546.5,-479.5 299.5,-479.5"/>
<text text-anchor="middle" x="329.5" y="-527.8" font-family="Times,serif" font-size="14.00" fill="#000000">IN</text>
<polyline fill="none" stroke="#000000" points="299.5,-514.5 359.5,-514.5 "/>
<text text-anchor="middle" x="329.5" y="-493.3" font-family="Times,serif" font-size="14.00" fill="#000000">in_file</text>
<polyline fill="none" stroke="#000000" points="359.5,-479.5 359.5,-548.5 "/>
<text text-anchor="middle" x="410" y="-533.3" font-family="Times,serif" font-size="14.00" fill="#000000">get_dummy</text>
<polyline fill="none" stroke="#000000" points="359.5,-525.5 460.5,-525.5 "/>
<text text-anchor="middle" x="410" y="-510.3" font-family="Times,serif" font-size="14.00" fill="#000000">bold</text>
<polyline fill="none" stroke="#000000" points="359.5,-502.5 460.5,-502.5 "/>
<text text-anchor="middle" x="410" y="-487.3" font-family="Times,serif" font-size="14.00" fill="#000000"> </text>
<polyline fill="none" stroke="#000000" points="460.5,-479.5 460.5,-548.5 "/>
<text text-anchor="middle" x="503.5" y="-533.3" font-family="Times,serif" font-size="14.00" fill="#000000">OUT</text>
<polyline fill="none" stroke="#000000" points="460.5,-525.5 546.5,-525.5 "/>
<text text-anchor="middle" x="503.5" y="-510.3" font-family="Times,serif" font-size="14.00" fill="#000000">n_dummy</text>
<polyline fill="none" stroke="#000000" points="460.5,-502.5 546.5,-502.5 "/>
<text text-anchor="middle" x="503.5" y="-487.3" font-family="Times,serif" font-size="14.00" fill="#000000">t_mask</text>
</g>
<!-- bold_reference_wfinputnode&#45;&gt;bold_reference_wfget_dummy -->
<g id="edge10" class="edge">
<title>bold_reference_wfinputnode:e&#45;&gt;bold_reference_wfget_dummy:w</title>
<path fill="none" stroke="#000000" d="M242,-643.5C308.045,-643.5 237.7266,-512.5853 288.8569,-498.2665"/>
<polygon fill="#000000" stroke="#000000" points="289.5107,-501.7121 299,-497 288.6434,-494.7661 289.5107,-501.7121"/>
</g>
<!-- bold_reference_wfcalc_dummy_scans -->
<g id="node4" class="node">
<title>bold_reference_wfcalc_dummy_scans</title>
<polygon fill="none" stroke="#000000" points="131,-373.5 131,-442.5 563,-442.5 563,-373.5 131,-373.5"/>
<text text-anchor="middle" x="208.5" y="-427.3" font-family="Times,serif" font-size="14.00" fill="#000000">IN</text>
<polyline fill="none" stroke="#000000" points="131,-419.5 286,-419.5 "/>
<text text-anchor="middle" x="208.5" y="-404.3" font-family="Times,serif" font-size="14.00" fill="#000000">algo_dummy_scans</text>
<polyline fill="none" stroke="#000000" points="131,-396.5 286,-396.5 "/>
<text text-anchor="middle" x="208.5" y="-381.3" font-family="Times,serif" font-size="14.00" fill="#000000">dummy_scans</text>
<polyline fill="none" stroke="#000000" points="286,-373.5 286,-442.5 "/>
<text text-anchor="middle" x="363.5" y="-427.3" font-family="Times,serif" font-size="14.00" fill="#000000">calc_dummy_scans</text>
<polyline fill="none" stroke="#000000" points="286,-419.5 441,-419.5 "/>
<text text-anchor="middle" x="363.5" y="-404.3" font-family="Times,serif" font-size="14.00" fill="#000000">utility</text>
<polyline fill="none" stroke="#000000" points="286,-396.5 441,-396.5 "/>
<text text-anchor="middle" x="363.5" y="-381.3" font-family="Times,serif" font-size="14.00" fill="#000000"> </text>
<polyline fill="none" stroke="#000000" points="441,-373.5 441,-442.5 "/>
<text text-anchor="middle" x="502" y="-421.8" font-family="Times,serif" font-size="14.00" fill="#000000">OUT</text>
<polyline fill="none" stroke="#000000" points="441,-408.5 563,-408.5 "/>
<text text-anchor="middle" x="502" y="-387.3" font-family="Times,serif" font-size="14.00" fill="#000000">skip_vols_num</text>
</g>
<!-- bold_reference_wfinputnode&#45;&gt;bold_reference_wfcalc_dummy_scans -->
<g id="edge13" class="edge">
<title>bold_reference_wfinputnode:e&#45;&gt;bold_reference_wfcalc_dummy_scans:w</title>
<path fill="none" stroke="#000000" d="M242,-596.5C247.1111,-596.5 243.6646,-589.8324 242,-585 215.9109,-509.2626 157.0891,-518.7374 131,-443 124.0475,-422.8167 110.9319,-396.2861 121.2685,-387.7625"/>
<polygon fill="#000000" stroke="#000000" points="122.3359,-391.0978 131,-385 120.4243,-384.3639 122.3359,-391.0978"/>
</g>
<!-- bold_reference_wfenhance_and_skullstrip_bold_wf -->
<g id="node6" class="node">
<title>bold_reference_wfenhance_and_skullstrip_bold_wf</title>
<polygon fill="none" stroke="#000000" points="619.5,-244.5 619.5,-336.5 1270.5,-336.5 1270.5,-244.5 619.5,-244.5"/>
<text text-anchor="middle" x="701" y="-317.8" font-family="Times,serif" font-size="14.00" fill="#000000">IN</text>
<polyline fill="none" stroke="#000000" points="619.5,-306.5 782.5,-306.5 "/>
<text text-anchor="middle" x="701" y="-287.3" font-family="Times,serif" font-size="14.00" fill="#000000">inputnode.in_file</text>
<polyline fill="none" stroke="#000000" points="619.5,-275.5 782.5,-275.5 "/>
<text text-anchor="middle" x="701" y="-256.3" font-family="Times,serif" font-size="14.00" fill="#000000">inputnode.pre_mask</text>
<polyline fill="none" stroke="#000000" points="782.5,-244.5 782.5,-336.5 "/>
<text text-anchor="middle" x="907" y="-317.8" font-family="Times,serif" font-size="14.00" fill="#000000">enhance_and_skullstrip_bold_wf</text>
<polyline fill="none" stroke="#000000" points="782.5,-306.5 1031.5,-306.5 "/>
<text text-anchor="middle" x="907" y="-287.3" font-family="Times,serif" font-size="14.00" fill="#000000"> </text>
<polyline fill="none" stroke="#000000" points="782.5,-275.5 1031.5,-275.5 "/>
<text text-anchor="middle" x="907" y="-256.3" font-family="Times,serif" font-size="14.00" fill="#000000"> </text>
<polyline fill="none" stroke="#000000" points="1031.5,-244.5 1031.5,-336.5 "/>
<text text-anchor="middle" x="1151" y="-321.3" font-family="Times,serif" font-size="14.00" fill="#000000">OUT</text>
<polyline fill="none" stroke="#000000" points="1031.5,-313.5 1270.5,-313.5 "/>
<text text-anchor="middle" x="1151" y="-298.3" font-family="Times,serif" font-size="14.00" fill="#000000">outputnode.bias_corrected_file</text>
<polyline fill="none" stroke="#000000" points="1031.5,-290.5 1270.5,-290.5 "/>
<text text-anchor="middle" x="1151" y="-275.3" font-family="Times,serif" font-size="14.00" fill="#000000">outputnode.mask_file</text>
<polyline fill="none" stroke="#000000" points="1031.5,-267.5 1270.5,-267.5 "/>
<text text-anchor="middle" x="1151" y="-252.3" font-family="Times,serif" font-size="14.00" fill="#000000">outputnode.skull_stripped_file</text>
</g>
<!-- bold_reference_wfinputnode&#45;&gt;bold_reference_wfenhance_and_skullstrip_bold_wf -->
<g id="edge12" class="edge">
<title>bold_reference_wfinputnode:e&#45;&gt;bold_reference_wfenhance_and_skullstrip_bold_wf:w</title>
<path fill="none" stroke="#000000" d="M242,-619.5C257.3333,-619.5 250.712,-597.6179 242,-585 216.3457,-547.8439 176.7758,-582.9429 147,-549 94.8982,-489.6066 72.7434,-434.7735 122,-373 190.6283,-286.9322 488.1734,-260.9627 608.9043,-259.5608"/>
<polygon fill="#000000" stroke="#000000" points="609.0213,-263.0603 619,-259.5 608.9791,-256.0604 609.0213,-263.0603"/>
</g>
<!-- bold_reference_wfgen_avg -->
<g id="node5" class="node">
<title>bold_reference_wfgen_avg</title>
<polygon fill="none" stroke="#000000" points="928,-373.5 928,-442.5 1142,-442.5 1142,-373.5 928,-373.5"/>
<text text-anchor="middle" x="962" y="-427.3" font-family="Times,serif" font-size="14.00" fill="#000000">IN</text>
<polyline fill="none" stroke="#000000" points="928,-419.5 996,-419.5 "/>
<text text-anchor="middle" x="962" y="-404.3" font-family="Times,serif" font-size="14.00" fill="#000000">in_file</text>
<polyline fill="none" stroke="#000000" points="928,-396.5 996,-396.5 "/>
<text text-anchor="middle" x="962" y="-381.3" font-family="Times,serif" font-size="14.00" fill="#000000">t_mask</text>
<polyline fill="none" stroke="#000000" points="996,-373.5 996,-442.5 "/>
<text text-anchor="middle" x="1034" y="-427.3" font-family="Times,serif" font-size="14.00" fill="#000000">gen_avg</text>
<polyline fill="none" stroke="#000000" points="996,-419.5 1072,-419.5 "/>
<text text-anchor="middle" x="1034" y="-404.3" font-family="Times,serif" font-size="14.00" fill="#000000">images</text>
<polyline fill="none" stroke="#000000" points="996,-396.5 1072,-396.5 "/>
<text text-anchor="middle" x="1034" y="-381.3" font-family="Times,serif" font-size="14.00" fill="#000000"> </text>
<polyline fill="none" stroke="#000000" points="1072,-373.5 1072,-442.5 "/>
<text text-anchor="middle" x="1107" y="-421.8" font-family="Times,serif" font-size="14.00" fill="#000000">OUT</text>
<polyline fill="none" stroke="#000000" points="1072,-408.5 1142,-408.5 "/>
<text text-anchor="middle" x="1107" y="-387.3" font-family="Times,serif" font-size="14.00" fill="#000000">out_file</text>
</g>
<!-- bold_reference_wfval_bold&#45;&gt;bold_reference_wfgen_avg -->
<g id="edge14" class="edge">
<title>bold_reference_wfval_bold:e&#45;&gt;bold_reference_wfgen_avg:w</title>
<path fill="none" stroke="#000000" d="M950,-514C993.2284,-514 902.1846,-428.4379 918.1389,-411.0581"/>
<polygon fill="#000000" stroke="#000000" points="919.4854,-414.305 928,-408 917.412,-407.6191 919.4854,-414.305"/>
</g>
<!-- bold_reference_wfoutputnode -->
<g id="node7" class="node">
<title>bold_reference_wfoutputnode</title>
<polygon fill="none" stroke="#000000" points="1271.5,-.5 1271.5,-207.5 1574.5,-207.5 1574.5,-.5 1271.5,-.5"/>
<text text-anchor="middle" x="1349" y="-192.3" font-family="Times,serif" font-size="14.00" fill="#000000">IN</text>
<polyline fill="none" stroke="#000000" points="1271.5,-184.5 1426.5,-184.5 "/>
<text text-anchor="middle" x="1349" y="-169.3" font-family="Times,serif" font-size="14.00" fill="#000000">algo_dummy_scans</text>
<polyline fill="none" stroke="#000000" points="1271.5,-161.5 1426.5,-161.5 "/>
<text text-anchor="middle" x="1349" y="-146.3" font-family="Times,serif" font-size="14.00" fill="#000000">bold_file</text>
<polyline fill="none" stroke="#000000" points="1271.5,-138.5 1426.5,-138.5 "/>
<text text-anchor="middle" x="1349" y="-123.3" font-family="Times,serif" font-size="14.00" fill="#000000">bold_mask</text>
<polyline fill="none" stroke="#000000" points="1271.5,-115.5 1426.5,-115.5 "/>
<text text-anchor="middle" x="1349" y="-100.3" font-family="Times,serif" font-size="14.00" fill="#000000">raw_ref_image</text>
<polyline fill="none" stroke="#000000" points="1271.5,-92.5 1426.5,-92.5 "/>
<text text-anchor="middle" x="1349" y="-77.3" font-family="Times,serif" font-size="14.00" fill="#000000">ref_image</text>
<polyline fill="none" stroke="#000000" points="1271.5,-69.5 1426.5,-69.5 "/>
<text text-anchor="middle" x="1349" y="-54.3" font-family="Times,serif" font-size="14.00" fill="#000000">ref_image_brain</text>
<polyline fill="none" stroke="#000000" points="1271.5,-46.5 1426.5,-46.5 "/>
<text text-anchor="middle" x="1349" y="-31.3" font-family="Times,serif" font-size="14.00" fill="#000000">skip_vols</text>
<polyline fill="none" stroke="#000000" points="1271.5,-23.5 1426.5,-23.5 "/>
<text text-anchor="middle" x="1349" y="-8.3" font-family="Times,serif" font-size="14.00" fill="#000000">validation_report</text>
<polyline fill="none" stroke="#000000" points="1426.5,-.5 1426.5,-207.5 "/>
<text text-anchor="middle" x="1475.5" y="-169.3" font-family="Times,serif" font-size="14.00" fill="#000000">outputnode</text>
<polyline fill="none" stroke="#000000" points="1426.5,-138.5 1524.5,-138.5 "/>
<text text-anchor="middle" x="1475.5" y="-100.3" font-family="Times,serif" font-size="14.00" fill="#000000">utility</text>
<polyline fill="none" stroke="#000000" points="1426.5,-69.5 1524.5,-69.5 "/>
<text text-anchor="middle" x="1475.5" y="-31.3" font-family="Times,serif" font-size="14.00" fill="#000000"> </text>
<polyline fill="none" stroke="#000000" points="1524.5,-.5 1524.5,-207.5 "/>
<text text-anchor="middle" x="1549.5" y="-100.3" font-family="Times,serif" font-size="14.00" fill="#000000">OUT</text>
</g>
<!-- bold_reference_wfval_bold&#45;&gt;bold_reference_wfoutputnode -->
<g id="edge15" class="edge">
<title>bold_reference_wfval_bold:e&#45;&gt;bold_reference_wfoutputnode:w</title>
<path fill="none" stroke="#000000" d="M950,-514C1040.4971,-514 1292.8541,-512.3454 1351,-443 1407.827,-375.2275 1399.0228,-318.2713 1351,-244 1329.8297,-211.2583 1292.1703,-240.7417 1271,-208 1259.2997,-189.9045 1249.1476,-161.5325 1261.1893,-152.71"/>
<polygon fill="#000000" stroke="#000000" points="1262.2929,-156.0363 1271,-150 1260.429,-149.289 1262.2929,-156.0363"/>
</g>
<!-- bold_reference_wfval_bold&#45;&gt;bold_reference_wfoutputnode -->
<g id="edge16" class="edge">
<title>bold_reference_wfval_bold:e&#45;&gt;bold_reference_wfoutputnode:w</title>
<path fill="none" stroke="#000000" d="M950,-491C1119.9476,-491 1222.0911,-488.0376 1300,-337 1318.9484,-300.2658 1313.7475,-282.9801 1300,-244 1293.1665,-224.6241 1277.8335,-227.3759 1271,-208 1243.2152,-129.2178 1188.609,-21.2858 1261.0023,-12.5645"/>
<polygon fill="#000000" stroke="#000000" points="1261.2133,-16.0583 1271,-12 1260.8186,-9.0694 1261.2133,-16.0583"/>
</g>
<!-- bold_reference_wfget_dummy&#45;&gt;bold_reference_wfcalc_dummy_scans -->
<g id="edge7" class="edge">
<title>bold_reference_wfget_dummy:e&#45;&gt;bold_reference_wfcalc_dummy_scans:w</title>
<path fill="none" stroke="#000000" d="M547,-514C562.5556,-514 557.5146,-490.4638 547,-479 484.2798,-410.6176 193.7202,-511.3824 131,-443 123.6069,-434.9395 118.9199,-420.9106 122.196,-413.2914"/>
<polygon fill="#000000" stroke="#000000" points="124.2319,-416.1513 131,-408 120.6259,-410.1515 124.2319,-416.1513"/>
</g>
<!-- bold_reference_wfget_dummy&#45;&gt;bold_reference_wfgen_avg -->
<g id="edge9" class="edge">
<title>bold_reference_wfget_dummy:e&#45;&gt;bold_reference_wfgen_avg:w</title>
<path fill="none" stroke="#000000" d="M547,-491C719.3318,-491 751.0283,-389.1002 917.8665,-385.1197"/>
<polygon fill="#000000" stroke="#000000" points="918.0421,-388.618 928,-385 917.9593,-381.6185 918.0421,-388.618"/>
</g>
<!-- bold_reference_wfget_dummy&#45;&gt;bold_reference_wfoutputnode -->
<g id="edge8" class="edge">
<title>bold_reference_wfget_dummy:e&#45;&gt;bold_reference_wfoutputnode:w</title>
<path fill="none" stroke="#000000" d="M547,-514C670.3251,-514 520.1128,-327.3583 611,-244 663.3393,-195.9964 1158.4252,-174.609 1260.944,-173.0877"/>
<polygon fill="#000000" stroke="#000000" points="1261.031,-176.5872 1271,-173 1260.9698,-169.5875 1261.031,-176.5872"/>
</g>
<!-- bold_reference_wfcalc_dummy_scans&#45;&gt;bold_reference_wfoutputnode -->
<g id="edge1" class="edge">
<title>bold_reference_wfcalc_dummy_scans:e&#45;&gt;bold_reference_wfoutputnode:w</title>
<path fill="none" stroke="#000000" d="M563,-391C595.8145,-391 556.1981,-269.3786 577,-244 677.0084,-121.9886 1092.4034,-38.48 1260.7556,-35.1061"/>
<polygon fill="#000000" stroke="#000000" points="1261.0368,-38.6035 1271,-35 1260.9642,-31.6039 1261.0368,-38.6035"/>
</g>
<!-- bold_reference_wfgen_avg&#45;&gt;bold_reference_wfenhance_and_skullstrip_bold_wf -->
<g id="edge5" class="edge">
<title>bold_reference_wfgen_avg:e&#45;&gt;bold_reference_wfenhance_and_skullstrip_bold_wf:w</title>
<path fill="none" stroke="#000000" d="M1142,-391C1150,-391 1147.4592,-378.8479 1142,-373 1062.5027,-287.8425 698.4973,-422.1575 619,-337 608.1113,-325.336 601.8156,-303.7501 609.5789,-295.1625"/>
<polygon fill="#000000" stroke="#000000" points="610.9477,-298.3856 619,-291.5 608.4113,-291.8613 610.9477,-298.3856"/>
</g>
<!-- bold_reference_wfgen_avg&#45;&gt;bold_reference_wfoutputnode -->
<g id="edge6" class="edge">
<title>bold_reference_wfgen_avg:e&#45;&gt;bold_reference_wfoutputnode:w</title>
<path fill="none" stroke="#000000" d="M1142,-391C1174.9309,-391 1261.4356,-364.1994 1280,-337 1336.2537,-254.5805 1179.7467,-114.855 1260.5718,-104.5983"/>
<polygon fill="#000000" stroke="#000000" points="1261.2169,-108.0671 1271,-104 1260.8159,-101.0786 1261.2169,-108.0671"/>
</g>
<!-- bold_reference_wfenhance_and_skullstrip_bold_wf&#45;&gt;bold_reference_wfoutputnode -->
<g id="edge2" class="edge">
<title>bold_reference_wfenhance_and_skullstrip_bold_wf:e&#45;&gt;bold_reference_wfoutputnode:w</title>
<path fill="none" stroke="#000000" d="M1271,-302.5C1271,-302.5 1271,-134.4248 1271,-91.093"/>
<polygon fill="#000000" stroke="#000000" points="1274.5001,-91 1271,-81 1267.5001,-91 1274.5001,-91"/>
</g>
<!-- bold_reference_wfenhance_and_skullstrip_bold_wf&#45;&gt;bold_reference_wfoutputnode -->
<g id="edge3" class="edge">
<title>bold_reference_wfenhance_and_skullstrip_bold_wf:e&#45;&gt;bold_reference_wfoutputnode:w</title>
<path fill="none" stroke="#000000" d="M1271,-278.5C1271,-278.5 1271,-171.6414 1271,-137.4132"/>
<polygon fill="#000000" stroke="#000000" points="1274.5001,-137 1271,-127 1267.5001,-137 1274.5001,-137"/>
</g>
<!-- bold_reference_wfenhance_and_skullstrip_bold_wf&#45;&gt;bold_reference_wfoutputnode -->
<g id="edge4" class="edge">
<title>bold_reference_wfenhance_and_skullstrip_bold_wf:e&#45;&gt;bold_reference_wfoutputnode:w</title>
<path fill="none" stroke="#000000" d="M1271,-255.5C1271,-255.5 1271,-108.3122 1271,-68.0656"/>
<polygon fill="#000000" stroke="#000000" points="1274.5001,-68 1271,-58 1267.5001,-68 1274.5001,-68"/>
</g>
</g>
</svg>
