<?xml version="1.0" encoding="UTF-8" standalone="no"?>
<!DOCTYPE svg PUBLIC "-//W3C//DTD SVG 1.1//EN"
 "http://www.w3.org/Graphics/SVG/1.1/DTD/svg11.dtd">
<!-- Generated by graphviz version 2.40.1 (20161225.0304)
 -->
<!-- Title: structs Pages: 1 -->
<svg width="1140pt" height="958pt"
 viewBox="0.00 0.00 1140.22 958.00" xmlns="http://www.w3.org/2000/svg" xmlns:xlink="http://www.w3.org/1999/xlink">
<g id="graph0" class="graph" transform="scale(1 1) rotate(0) translate(4 954)">
<title>structs</title>
<polygon fill="#ffffff" stroke="transparent" points="-4,4 -4,-954 1136.2197,-954 1136.2197,4 -4,4"/>
<!-- gifti_surface_wfinputnode -->
<g id="node1" class="node">
<title>gifti_surface_wfinputnode</title>
<polygon fill="none" stroke="#000000" points="0,-880.5 0,-949.5 214,-949.5 214,-880.5 0,-880.5"/>
<text text-anchor="middle" x="17.5" y="-911.3" font-family="Times,serif" font-size="14.00" fill="#000000">IN</text>
<polyline fill="none" stroke="#000000" points="35,-880.5 35,-949.5 "/>
<text text-anchor="middle" x="79.5" y="-934.3" font-family="Times,serif" font-size="14.00" fill="#000000">inputnode</text>
<polyline fill="none" stroke="#000000" points="35,-926.5 124,-926.5 "/>
<text text-anchor="middle" x="79.5" y="-911.3" font-family="Times,serif" font-size="14.00" fill="#000000">utility</text>
<polyline fill="none" stroke="#000000" points="35,-903.5 124,-903.5 "/>
<text text-anchor="middle" x="79.5" y="-888.3" font-family="Times,serif" font-size="14.00" fill="#000000"> </text>
<polyline fill="none" stroke="#000000" points="124,-880.5 124,-949.5 "/>
<text text-anchor="middle" x="169" y="-934.3" font-family="Times,serif" font-size="14.00" fill="#000000">OUT</text>
<polyline fill="none" stroke="#000000" points="124,-926.5 214,-926.5 "/>
<text text-anchor="middle" x="169" y="-911.3" font-family="Times,serif" font-size="14.00" fill="#000000">in_t1w</text>
<polyline fill="none" stroke="#000000" points="124,-903.5 214,-903.5 "/>
<text text-anchor="middle" x="169" y="-888.3" font-family="Times,serif" font-size="14.00" fill="#000000">subject_id</text>
</g>
<!-- gifti_surface_wffssource -->
<g id="node2" class="node">
<title>gifti_surface_wffssource</title>
<polygon fill="none" stroke="#000000" points="214,-705.5 214,-843.5 476,-843.5 476,-705.5 214,-705.5"/>
<text text-anchor="middle" x="259" y="-805.3" font-family="Times,serif" font-size="14.00" fill="#000000">IN</text>
<polyline fill="none" stroke="#000000" points="214,-774.5 304,-774.5 "/>
<text text-anchor="middle" x="259" y="-736.3" font-family="Times,serif" font-size="14.00" fill="#000000">subject_id</text>
<polyline fill="none" stroke="#000000" points="304,-705.5 304,-843.5 "/>
<text text-anchor="middle" x="342.5" y="-816.8" font-family="Times,serif" font-size="14.00" fill="#000000">fssource</text>
<polyline fill="none" stroke="#000000" points="304,-797.5 381,-797.5 "/>
<text text-anchor="middle" x="342.5" y="-770.8" font-family="Times,serif" font-size="14.00" fill="#000000">io</text>
<polyline fill="none" stroke="#000000" points="304,-751.5 381,-751.5 "/>
<text text-anchor="middle" x="342.5" y="-724.8" font-family="Times,serif" font-size="14.00" fill="#000000"> </text>
<polyline fill="none" stroke="#000000" points="381,-705.5 381,-843.5 "/>
<text text-anchor="middle" x="428.5" y="-828.3" font-family="Times,serif" font-size="14.00" fill="#000000">OUT</text>
<polyline fill="none" stroke="#000000" points="381,-820.5 476,-820.5 "/>
<text text-anchor="middle" x="428.5" y="-805.3" font-family="Times,serif" font-size="14.00" fill="#000000">graymid</text>
<polyline fill="none" stroke="#000000" points="381,-797.5 476,-797.5 "/>
<text text-anchor="middle" x="428.5" y="-782.3" font-family="Times,serif" font-size="14.00" fill="#000000">inflated</text>
<polyline fill="none" stroke="#000000" points="381,-774.5 476,-774.5 "/>
<text text-anchor="middle" x="428.5" y="-759.3" font-family="Times,serif" font-size="14.00" fill="#000000">orig</text>
<polyline fill="none" stroke="#000000" points="381,-751.5 476,-751.5 "/>
<text text-anchor="middle" x="428.5" y="-736.3" font-family="Times,serif" font-size="14.00" fill="#000000">pial</text>
<polyline fill="none" stroke="#000000" points="381,-728.5 476,-728.5 "/>
<text text-anchor="middle" x="428.5" y="-713.3" font-family="Times,serif" font-size="14.00" fill="#000000">smoothwm</text>
</g>
<!-- gifti_surface_wfinputnode&#45;&gt;gifti_surface_wffssource -->
<g id="edge13" class="edge">
<title>gifti_surface_wfinputnode:e&#45;&gt;gifti_surface_wffssource:w</title>
<path fill="none" stroke="#000000" d="M214,-892C214,-892 214,-783.4331 214,-749.506"/>
<polygon fill="#000000" stroke="#000000" points="217.5001,-749.5 214,-739.5 210.5001,-749.5 217.5001,-749.5"/>
</g>
<!-- gifti_surface_wffsnative_2_t1_xfm -->
<g id="node3" class="node">
<title>gifti_surface_wffsnative_2_t1_xfm</title>
<polygon fill="none" stroke="#000000" points="48.5,-493.5 48.5,-562.5 391.5,-562.5 391.5,-493.5 48.5,-493.5"/>
<text text-anchor="middle" x="96" y="-547.3" font-family="Times,serif" font-size="14.00" fill="#000000">IN</text>
<polyline fill="none" stroke="#000000" points="48.5,-539.5 143.5,-539.5 "/>
<text text-anchor="middle" x="96" y="-524.3" font-family="Times,serif" font-size="14.00" fill="#000000">source_file</text>
<polyline fill="none" stroke="#000000" points="48.5,-516.5 143.5,-516.5 "/>
<text text-anchor="middle" x="96" y="-501.3" font-family="Times,serif" font-size="14.00" fill="#000000">target_file</text>
<polyline fill="none" stroke="#000000" points="143.5,-493.5 143.5,-562.5 "/>
<text text-anchor="middle" x="217" y="-547.3" font-family="Times,serif" font-size="14.00" fill="#000000">fsnative_2_t1_xfm</text>
<polyline fill="none" stroke="#000000" points="143.5,-539.5 290.5,-539.5 "/>
<text text-anchor="middle" x="217" y="-524.3" font-family="Times,serif" font-size="14.00" fill="#000000">freesurfer</text>
<polyline fill="none" stroke="#000000" points="143.5,-516.5 290.5,-516.5 "/>
<text text-anchor="middle" x="217" y="-501.3" font-family="Times,serif" font-size="14.00" fill="#000000"> </text>
<polyline fill="none" stroke="#000000" points="290.5,-493.5 290.5,-562.5 "/>
<text text-anchor="middle" x="341" y="-541.8" font-family="Times,serif" font-size="14.00" fill="#000000">OUT</text>
<polyline fill="none" stroke="#000000" points="290.5,-528.5 391.5,-528.5 "/>
<text text-anchor="middle" x="341" y="-507.3" font-family="Times,serif" font-size="14.00" fill="#000000">out_reg_file</text>
</g>
<!-- gifti_surface_wfinputnode&#45;&gt;gifti_surface_wffsnative_2_t1_xfm -->
<g id="edge12" class="edge">
<title>gifti_surface_wfinputnode:e&#45;&gt;gifti_surface_wffsnative_2_t1_xfm:w</title>
<path fill="none" stroke="#000000" d="M214,-915C229.5556,-915 217.7157,-895.1053 214,-880 176.0114,-725.5665 85.9886,-717.4335 48,-563 42.949,-542.4663 28.8386,-516.5918 38.1601,-507.9561"/>
<polygon fill="#000000" stroke="#000000" points="39.4299,-511.2292 48,-505 37.4158,-504.5252 39.4299,-511.2292"/>
</g>
<!-- gifti_surface_wfsave_midthickness -->
<g id="node5" class="node">
<title>gifti_surface_wfsave_midthickness</title>
<polygon fill="none" stroke="#000000" points="783,-493.5 783,-562.5 1127,-562.5 1127,-493.5 783,-493.5"/>
<text text-anchor="middle" x="844" y="-547.3" font-family="Times,serif" font-size="14.00" fill="#000000">IN</text>
<polyline fill="none" stroke="#000000" points="783,-539.5 905,-539.5 "/>
<text text-anchor="middle" x="844" y="-524.3" font-family="Times,serif" font-size="14.00" fill="#000000">container</text>
<polyline fill="none" stroke="#000000" points="783,-516.5 905,-516.5 "/>
<text text-anchor="middle" x="844" y="-501.3" font-family="Times,serif" font-size="14.00" fill="#000000">surf.@graymid</text>
<polyline fill="none" stroke="#000000" points="905,-493.5 905,-562.5 "/>
<text text-anchor="middle" x="981" y="-547.3" font-family="Times,serif" font-size="14.00" fill="#000000">save_midthickness</text>
<polyline fill="none" stroke="#000000" points="905,-539.5 1057,-539.5 "/>
<text text-anchor="middle" x="981" y="-524.3" font-family="Times,serif" font-size="14.00" fill="#000000">io</text>
<polyline fill="none" stroke="#000000" points="905,-516.5 1057,-516.5 "/>
<text text-anchor="middle" x="981" y="-501.3" font-family="Times,serif" font-size="14.00" fill="#000000"> </text>
<polyline fill="none" stroke="#000000" points="1057,-493.5 1057,-562.5 "/>
<text text-anchor="middle" x="1092" y="-541.8" font-family="Times,serif" font-size="14.00" fill="#000000">OUT</text>
<polyline fill="none" stroke="#000000" points="1057,-528.5 1127,-528.5 "/>
<text text-anchor="middle" x="1092" y="-507.3" font-family="Times,serif" font-size="14.00" fill="#000000">out_file</text>
</g>
<!-- gifti_surface_wfinputnode&#45;&gt;gifti_surface_wfsave_midthickness -->
<g id="edge14" class="edge">
<title>gifti_surface_wfinputnode:e&#45;&gt;gifti_surface_wfsave_midthickness:w</title>
<path fill="none" stroke="#000000" d="M214,-892C336.3192,-892 369.9589,-885.5634 485,-844 632.7108,-790.6334 713.0981,-804.7975 792,-669 815.7529,-628.119 788.7769,-609.9264 783,-563 781.8121,-553.3506 776.0327,-542.0911 775.6629,-535.0034"/>
<polygon fill="#000000" stroke="#000000" points="778.183,-537.4365 783,-528 773.3497,-532.3729 778.183,-537.4365"/>
</g>
<!-- gifti_surface_wffssource&#45;&gt;gifti_surface_wffsnative_2_t1_xfm -->
<g id="edge8" class="edge">
<title>gifti_surface_wffssource:e&#45;&gt;gifti_surface_wffsnative_2_t1_xfm:w</title>
<path fill="none" stroke="#000000" d="M476,-762.5C501.5556,-762.5 490.9571,-725.7213 476,-705 446.6748,-664.3736 77.3252,-603.6264 48,-563 41.7408,-554.3286 36.7355,-541.0374 39.2733,-533.5772"/>
<polygon fill="#000000" stroke="#000000" points="41.4587,-536.3344 48,-528 37.689,-530.4361 41.4587,-536.3344"/>
</g>
<!-- gifti_surface_wfmidthickness -->
<g id="node4" class="node">
<title>gifti_surface_wfmidthickness</title>
<polygon fill="none" stroke="#000000" points="523.5,-599.5 523.5,-668.5 782.5,-668.5 782.5,-599.5 523.5,-599.5"/>
<text text-anchor="middle" x="561.5" y="-653.3" font-family="Times,serif" font-size="14.00" fill="#000000">IN</text>
<polyline fill="none" stroke="#000000" points="523.5,-645.5 599.5,-645.5 "/>
<text text-anchor="middle" x="561.5" y="-630.3" font-family="Times,serif" font-size="14.00" fill="#000000">graymid</text>
<polyline fill="none" stroke="#000000" points="523.5,-622.5 599.5,-622.5 "/>
<text text-anchor="middle" x="561.5" y="-607.3" font-family="Times,serif" font-size="14.00" fill="#000000">in_file</text>
<polyline fill="none" stroke="#000000" points="599.5,-599.5 599.5,-668.5 "/>
<text text-anchor="middle" x="656" y="-653.3" font-family="Times,serif" font-size="14.00" fill="#000000">midthickness</text>
<polyline fill="none" stroke="#000000" points="599.5,-645.5 712.5,-645.5 "/>
<text text-anchor="middle" x="656" y="-630.3" font-family="Times,serif" font-size="14.00" fill="#000000">freesurfer</text>
<polyline fill="none" stroke="#000000" points="599.5,-622.5 712.5,-622.5 "/>
<text text-anchor="middle" x="656" y="-607.3" font-family="Times,serif" font-size="14.00" fill="#000000"> </text>
<polyline fill="none" stroke="#000000" points="712.5,-599.5 712.5,-668.5 "/>
<text text-anchor="middle" x="747.5" y="-647.8" font-family="Times,serif" font-size="14.00" fill="#000000">OUT</text>
<polyline fill="none" stroke="#000000" points="712.5,-634.5 782.5,-634.5 "/>
<text text-anchor="middle" x="747.5" y="-613.3" font-family="Times,serif" font-size="14.00" fill="#000000">out_file</text>
</g>
<!-- gifti_surface_wffssource&#45;&gt;gifti_surface_wfmidthickness -->
<g id="edge6" class="edge">
<title>gifti_surface_wffssource:e&#45;&gt;gifti_surface_wfmidthickness:w</title>
<path fill="none" stroke="#000000" d="M476,-809.5C484.7136,-809.5 505.8873,-678.7078 518.008,-642.9443"/>
<polygon fill="#000000" stroke="#000000" points="521.1826,-644.4378 523,-634 515.0702,-641.0263 521.1826,-644.4378"/>
</g>
<!-- gifti_surface_wffssource&#45;&gt;gifti_surface_wfmidthickness -->
<g id="edge10" class="edge">
<title>gifti_surface_wffssource:e&#45;&gt;gifti_surface_wfmidthickness:w</title>
<path fill="none" stroke="#000000" d="M476,-716.5C501.7058,-716.5 498.4709,-692.4505 509,-669 517.995,-648.9664 503.5072,-622.3376 513.3215,-613.7757"/>
<polygon fill="#000000" stroke="#000000" points="514.3524,-617.1212 523,-611 512.4226,-610.3925 514.3524,-617.1212"/>
</g>
<!-- gifti_surface_wfsurface_list -->
<g id="node6" class="node">
<title>gifti_surface_wfsurface_list</title>
<polygon fill="none" stroke="#000000" points="457.5,-341.5 457.5,-456.5 646.5,-456.5 646.5,-341.5 457.5,-341.5"/>
<text text-anchor="middle" x="477" y="-441.3" font-family="Times,serif" font-size="14.00" fill="#000000">IN</text>
<polyline fill="none" stroke="#000000" points="457.5,-433.5 496.5,-433.5 "/>
<text text-anchor="middle" x="477" y="-418.3" font-family="Times,serif" font-size="14.00" fill="#000000">in1</text>
<polyline fill="none" stroke="#000000" points="457.5,-410.5 496.5,-410.5 "/>
<text text-anchor="middle" x="477" y="-395.3" font-family="Times,serif" font-size="14.00" fill="#000000">in2</text>
<polyline fill="none" stroke="#000000" points="457.5,-387.5 496.5,-387.5 "/>
<text text-anchor="middle" x="477" y="-372.3" font-family="Times,serif" font-size="14.00" fill="#000000">in3</text>
<polyline fill="none" stroke="#000000" points="457.5,-364.5 496.5,-364.5 "/>
<text text-anchor="middle" x="477" y="-349.3" font-family="Times,serif" font-size="14.00" fill="#000000">in4</text>
<polyline fill="none" stroke="#000000" points="496.5,-341.5 496.5,-456.5 "/>
<text text-anchor="middle" x="546.5" y="-433.8" font-family="Times,serif" font-size="14.00" fill="#000000">surface_list</text>
<polyline fill="none" stroke="#000000" points="496.5,-418.5 596.5,-418.5 "/>
<text text-anchor="middle" x="546.5" y="-395.8" font-family="Times,serif" font-size="14.00" fill="#000000">utility</text>
<polyline fill="none" stroke="#000000" points="496.5,-380.5 596.5,-380.5 "/>
<text text-anchor="middle" x="546.5" y="-357.3" font-family="Times,serif" font-size="14.00" fill="#000000"> </text>
<polyline fill="none" stroke="#000000" points="596.5,-341.5 596.5,-456.5 "/>
<text text-anchor="middle" x="621.5" y="-424.3" font-family="Times,serif" font-size="14.00" fill="#000000">OUT</text>
<polyline fill="none" stroke="#000000" points="596.5,-399.5 646.5,-399.5 "/>
<text text-anchor="middle" x="621.5" y="-366.8" font-family="Times,serif" font-size="14.00" fill="#000000">out</text>
</g>
<!-- gifti_surface_wffssource&#45;&gt;gifti_surface_wfsurface_list -->
<g id="edge7" class="edge">
<title>gifti_surface_wffssource:e&#45;&gt;gifti_surface_wfsurface_list:w</title>
<path fill="none" stroke="#000000" d="M476,-786.5C512.2222,-786.5 476.4271,-741.2197 476,-705 474.8888,-610.7581 489.4689,-585.4211 471,-493 467.6359,-476.1655 460.1654,-473.8729 457,-457 454.3552,-442.9022 444.4954,-399.837 449.7074,-382.9234"/>
<polygon fill="#000000" stroke="#000000" points="452.1575,-385.4234 457,-376 447.3379,-380.3468 452.1575,-385.4234"/>
</g>
<!-- gifti_surface_wffssource&#45;&gt;gifti_surface_wfsurface_list -->
<g id="edge9" class="edge">
<title>gifti_surface_wffssource:e&#45;&gt;gifti_surface_wfsurface_list:w</title>
<path fill="none" stroke="#000000" d="M476,-739.5C482.8621,-739.5 472.1779,-670.9576 472,-669 469.5617,-642.1746 435.2922,-446.4516 449.8715,-406.2182"/>
<polygon fill="#000000" stroke="#000000" points="452.4636,-408.5746 457,-399 447.483,-403.6558 452.4636,-408.5746"/>
</g>
<!-- gifti_surface_wffssource&#45;&gt;gifti_surface_wfsurface_list -->
<g id="edge11" class="edge">
<title>gifti_surface_wffssource:e&#45;&gt;gifti_surface_wfsurface_list:w</title>
<path fill="none" stroke="#000000" d="M476,-716.5C481.1111,-716.5 477.1743,-709.9744 476,-705 471.8901,-687.59 463.1639,-686.127 458,-669 435.3579,-593.9038 438.4414,-571.1606 445,-493 446.0453,-480.5426 443.015,-444.2149 449.2693,-428.9177"/>
<polygon fill="#000000" stroke="#000000" points="451.8819,-431.2766 457,-422 447.214,-426.0602 451.8819,-431.2766"/>
</g>
<!-- gifti_surface_wffix_surfs -->
<g id="node8" class="node">
<title>gifti_surface_wffix_surfs</title>
<polygon fill="none" stroke="#000000" points="429,-129.5 429,-198.5 695,-198.5 695,-129.5 429,-129.5"/>
<text text-anchor="middle" x="488" y="-183.3" font-family="Times,serif" font-size="14.00" fill="#000000">IN</text>
<polyline fill="none" stroke="#000000" points="429,-175.5 547,-175.5 "/>
<text text-anchor="middle" x="488" y="-160.3" font-family="Times,serif" font-size="14.00" fill="#000000">in_file</text>
<polyline fill="none" stroke="#000000" points="429,-152.5 547,-152.5 "/>
<text text-anchor="middle" x="488" y="-137.3" font-family="Times,serif" font-size="14.00" fill="#000000">transform_file</text>
<polyline fill="none" stroke="#000000" points="547,-129.5 547,-198.5 "/>
<text text-anchor="middle" x="586" y="-183.3" font-family="Times,serif" font-size="14.00" fill="#000000">fix_surfs</text>
<polyline fill="none" stroke="#000000" points="547,-175.5 625,-175.5 "/>
<text text-anchor="middle" x="586" y="-160.3" font-family="Times,serif" font-size="14.00" fill="#000000">surf</text>
<polyline fill="none" stroke="#000000" points="547,-152.5 625,-152.5 "/>
<text text-anchor="middle" x="586" y="-137.3" font-family="Times,serif" font-size="14.00" fill="#000000"> </text>
<polyline fill="none" stroke="#000000" points="625,-129.5 625,-198.5 "/>
<text text-anchor="middle" x="660" y="-177.8" font-family="Times,serif" font-size="14.00" fill="#000000">OUT</text>
<polyline fill="none" stroke="#000000" points="625,-164.5 695,-164.5 "/>
<text text-anchor="middle" x="660" y="-143.3" font-family="Times,serif" font-size="14.00" fill="#000000">out_file</text>
</g>
<!-- gifti_surface_wffsnative_2_t1_xfm&#45;&gt;gifti_surface_wffix_surfs -->
<g id="edge4" class="edge">
<title>gifti_surface_wffsnative_2_t1_xfm:e&#45;&gt;gifti_surface_wffix_surfs:w</title>
<path fill="none" stroke="#000000" d="M392,-511C430.169,-511 394.1312,-195.2204 420.9952,-147.1133"/>
<polygon fill="#000000" stroke="#000000" points="423.1769,-149.8511 429,-141 418.9282,-144.288 423.1769,-149.8511"/>
</g>
<!-- gifti_surface_wfoutputnode -->
<g id="node9" class="node">
<title>gifti_surface_wfoutputnode</title>
<polygon fill="none" stroke="#000000" points="695,-.5 695,-92.5 1007,-92.5 1007,-.5 695,-.5"/>
<text text-anchor="middle" x="777" y="-77.3" font-family="Times,serif" font-size="14.00" fill="#000000">IN</text>
<polyline fill="none" stroke="#000000" points="695,-69.5 859,-69.5 "/>
<text text-anchor="middle" x="777" y="-54.3" font-family="Times,serif" font-size="14.00" fill="#000000">fsnative_to_t1w_xfm</text>
<polyline fill="none" stroke="#000000" points="695,-46.5 859,-46.5 "/>
<text text-anchor="middle" x="777" y="-31.3" font-family="Times,serif" font-size="14.00" fill="#000000">surf_norm</text>
<polyline fill="none" stroke="#000000" points="695,-23.5 859,-23.5 "/>
<text text-anchor="middle" x="777" y="-8.3" font-family="Times,serif" font-size="14.00" fill="#000000">surfaces</text>
<polyline fill="none" stroke="#000000" points="859,-.5 859,-92.5 "/>
<text text-anchor="middle" x="908" y="-73.8" font-family="Times,serif" font-size="14.00" fill="#000000">outputnode</text>
<polyline fill="none" stroke="#000000" points="859,-62.5 957,-62.5 "/>
<text text-anchor="middle" x="908" y="-43.3" font-family="Times,serif" font-size="14.00" fill="#000000">utility</text>
<polyline fill="none" stroke="#000000" points="859,-31.5 957,-31.5 "/>
<text text-anchor="middle" x="908" y="-12.3" font-family="Times,serif" font-size="14.00" fill="#000000"> </text>
<polyline fill="none" stroke="#000000" points="957,-.5 957,-92.5 "/>
<text text-anchor="middle" x="982" y="-42.8" font-family="Times,serif" font-size="14.00" fill="#000000">OUT</text>
</g>
<!-- gifti_surface_wffsnative_2_t1_xfm&#45;&gt;gifti_surface_wfoutputnode -->
<g id="edge5" class="edge">
<title>gifti_surface_wffsnative_2_t1_xfm:e&#45;&gt;gifti_surface_wfoutputnode:w</title>
<path fill="none" stroke="#000000" d="M392,-511C407.356,-511 405.6479,-250.2963 407,-235 411.1792,-187.7203 388.6696,-164.6545 420,-129 459.5285,-84.016 614.9514,-60.9097 684.5907,-58.6789"/>
<polygon fill="#000000" stroke="#000000" points="685.0617,-62.1714 695,-58.5 684.9413,-55.1725 685.0617,-62.1714"/>
</g>
<!-- gifti_surface_wfmidthickness&#45;&gt;gifti_surface_wfsave_midthickness -->
<g id="edge15" class="edge">
<title>gifti_surface_wfmidthickness:e&#45;&gt;gifti_surface_wfsave_midthickness:w</title>
<path fill="none" stroke="#000000" d="M783,-617C783,-617 783,-543.0625 783,-515.3359"/>
<polygon fill="#000000" stroke="#000000" points="786.5001,-515 783,-505 779.5001,-515 786.5001,-515"/>
</g>
<!-- gifti_surface_wfsave_midthickness&#45;&gt;gifti_surface_wfsurface_list -->
<g id="edge16" class="edge">
<title>gifti_surface_wfsave_midthickness:e&#45;&gt;gifti_surface_wfsurface_list:w</title>
<path fill="none" stroke="#000000" d="M1127,-511C1135,-511 1132.503,-498.8066 1127,-493 1075.7176,-438.8882 508.2824,-511.1118 457,-457 450.5416,-450.1853 446.9496,-385.7882 452.0278,-361.8789"/>
<polygon fill="#000000" stroke="#000000" points="455.1677,-363.4352 457,-353 449.0602,-360.015 455.1677,-363.4352"/>
</g>
<!-- gifti_surface_wffs_2_gii -->
<g id="node7" class="node">
<title>gifti_surface_wffs_2_gii</title>
<polygon fill="none" stroke="#000000" points="485,-235.5 485,-304.5 723,-304.5 723,-235.5 485,-235.5"/>
<text text-anchor="middle" x="515" y="-283.8" font-family="Times,serif" font-size="14.00" fill="#000000">IN</text>
<polyline fill="none" stroke="#000000" points="485,-270.5 545,-270.5 "/>
<text text-anchor="middle" x="515" y="-249.3" font-family="Times,serif" font-size="14.00" fill="#000000">in_file</text>
<polyline fill="none" stroke="#000000" points="545,-235.5 545,-304.5 "/>
<text text-anchor="middle" x="589.5" y="-289.3" font-family="Times,serif" font-size="14.00" fill="#000000">fs_2_gii</text>
<polyline fill="none" stroke="#000000" points="545,-281.5 634,-281.5 "/>
<text text-anchor="middle" x="589.5" y="-266.3" font-family="Times,serif" font-size="14.00" fill="#000000">freesurfer</text>
<polyline fill="none" stroke="#000000" points="545,-258.5 634,-258.5 "/>
<text text-anchor="middle" x="589.5" y="-243.3" font-family="Times,serif" font-size="14.00" fill="#000000"> </text>
<polyline fill="none" stroke="#000000" points="634,-235.5 634,-304.5 "/>
<text text-anchor="middle" x="678.5" y="-283.8" font-family="Times,serif" font-size="14.00" fill="#000000">OUT</text>
<polyline fill="none" stroke="#000000" points="634,-270.5 723,-270.5 "/>
<text text-anchor="middle" x="678.5" y="-249.3" font-family="Times,serif" font-size="14.00" fill="#000000">converted</text>
</g>
<!-- gifti_surface_wfsurface_list&#45;&gt;gifti_surface_wffs_2_gii -->
<g id="edge17" class="edge">
<title>gifti_surface_wfsurface_list:e&#45;&gt;gifti_surface_wffs_2_gii:w</title>
<path fill="none" stroke="#000000" d="M647,-370C659.8889,-370 655.0649,-351.0539 647,-341 600.8486,-283.467 531.1514,-362.533 485,-305 473.2502,-290.3525 465.3369,-265.1791 475.1787,-256.254"/>
<polygon fill="#000000" stroke="#000000" points="476.6082,-259.4675 485,-253 474.4066,-252.8227 476.6082,-259.4675"/>
</g>
<!-- gifti_surface_wffs_2_gii&#45;&gt;gifti_surface_wffix_surfs -->
<g id="edge2" class="edge">
<title>gifti_surface_wffs_2_gii:e&#45;&gt;gifti_surface_wffix_surfs:w</title>
<path fill="none" stroke="#000000" d="M723,-253C731,-253 728.302,-240.9908 723,-235 635.7547,-136.4199 516.2453,-297.5801 429,-199 421.7512,-190.8095 417.0056,-176.8334 420.2341,-169.257"/>
<polygon fill="#000000" stroke="#000000" points="422.2241,-172.1448 429,-164 418.6238,-166.1416 422.2241,-172.1448"/>
</g>
<!-- gifti_surface_wffs_2_gii&#45;&gt;gifti_surface_wfoutputnode -->
<g id="edge3" class="edge">
<title>gifti_surface_wffs_2_gii:e&#45;&gt;gifti_surface_wfoutputnode:w</title>
<path fill="none" stroke="#000000" d="M723,-253C827.2536,-253 603.676,-28.182 684.879,-12.3745"/>
<polygon fill="#000000" stroke="#000000" points="685.3384,-15.8479 695,-11.5 684.7358,-8.8739 685.3384,-15.8479"/>
</g>
<!-- gifti_surface_wffix_surfs&#45;&gt;gifti_surface_wfoutputnode -->
<g id="edge1" class="edge">
<title>gifti_surface_wffix_surfs:e&#45;&gt;gifti_surface_wfoutputnode:w</title>
<path fill="none" stroke="#000000" d="M695,-147C695,-147 695,-72.7324 695,-44.8821"/>
<polygon fill="#000000" stroke="#000000" points="698.5001,-44.5 695,-34.5 691.5001,-44.5 698.5001,-44.5"/>
</g>
</g>
</svg>
