<?xml version="1.0" encoding="UTF-8" standalone="no"?>
<!DOCTYPE svg PUBLIC "-//W3C//DTD SVG 1.1//EN"
 "http://www.w3.org/Graphics/SVG/1.1/DTD/svg11.dtd">
<!-- Generated by graphviz version 2.40.1 (20161225.0304)
 -->
<!-- Title: structs Pages: 1 -->
<svg width="975pt" height="631pt"
 viewBox="0.00 0.00 974.50 631.00" xmlns="http://www.w3.org/2000/svg" xmlns:xlink="http://www.w3.org/1999/xlink">
<g id="graph0" class="graph" transform="scale(1 1) rotate(0) translate(4 627)">
<title>structs</title>
<polygon fill="#ffffff" stroke="transparent" points="-4,4 -4,-627 970.5,-627 970.5,4 -4,4"/>
<!-- skullstrip_bold_wfinputnode -->
<g id="node1" class="node">
<title>skullstrip_bold_wfinputnode</title>
<polygon fill="none" stroke="#000000" points="0,-553.5 0,-622.5 184,-622.5 184,-553.5 0,-553.5"/>
<text text-anchor="middle" x="17.5" y="-584.3" font-family="Times,serif" font-size="14.00" fill="#000000">IN</text>
<polyline fill="none" stroke="#000000" points="35,-553.5 35,-622.5 "/>
<text text-anchor="middle" x="79.5" y="-607.3" font-family="Times,serif" font-size="14.00" fill="#000000">inputnode</text>
<polyline fill="none" stroke="#000000" points="35,-599.5 124,-599.5 "/>
<text text-anchor="middle" x="79.5" y="-584.3" font-family="Times,serif" font-size="14.00" fill="#000000">utility</text>
<polyline fill="none" stroke="#000000" points="35,-576.5 124,-576.5 "/>
<text text-anchor="middle" x="79.5" y="-561.3" font-family="Times,serif" font-size="14.00" fill="#000000"> </text>
<polyline fill="none" stroke="#000000" points="124,-553.5 124,-622.5 "/>
<text text-anchor="middle" x="154" y="-601.8" font-family="Times,serif" font-size="14.00" fill="#000000">OUT</text>
<polyline fill="none" stroke="#000000" points="124,-588.5 184,-588.5 "/>
<text text-anchor="middle" x="154" y="-567.3" font-family="Times,serif" font-size="14.00" fill="#000000">in_file</text>
</g>
<!-- skullstrip_bold_wfskullstrip_first_pass -->
<g id="node2" class="node">
<title>skullstrip_bold_wfskullstrip_first_pass</title>
<polygon fill="none" stroke="#000000" points="184.5,-447.5 184.5,-516.5 491.5,-516.5 491.5,-447.5 184.5,-447.5"/>
<text text-anchor="middle" x="214.5" y="-495.8" font-family="Times,serif" font-size="14.00" fill="#000000">IN</text>
<polyline fill="none" stroke="#000000" points="184.5,-482.5 244.5,-482.5 "/>
<text text-anchor="middle" x="214.5" y="-461.3" font-family="Times,serif" font-size="14.00" fill="#000000">in_file</text>
<polyline fill="none" stroke="#000000" points="244.5,-447.5 244.5,-516.5 "/>
<text text-anchor="middle" x="325.5" y="-501.3" font-family="Times,serif" font-size="14.00" fill="#000000">skullstrip_first_pass</text>
<polyline fill="none" stroke="#000000" points="244.5,-493.5 406.5,-493.5 "/>
<text text-anchor="middle" x="325.5" y="-478.3" font-family="Times,serif" font-size="14.00" fill="#000000">fsl</text>
<polyline fill="none" stroke="#000000" points="244.5,-470.5 406.5,-470.5 "/>
<text text-anchor="middle" x="325.5" y="-455.3" font-family="Times,serif" font-size="14.00" fill="#000000"> </text>
<polyline fill="none" stroke="#000000" points="406.5,-447.5 406.5,-516.5 "/>
<text text-anchor="middle" x="449" y="-501.3" font-family="Times,serif" font-size="14.00" fill="#000000">OUT</text>
<polyline fill="none" stroke="#000000" points="406.5,-493.5 491.5,-493.5 "/>
<text text-anchor="middle" x="449" y="-478.3" font-family="Times,serif" font-size="14.00" fill="#000000">mask_file</text>
<polyline fill="none" stroke="#000000" points="406.5,-470.5 491.5,-470.5 "/>
<text text-anchor="middle" x="449" y="-455.3" font-family="Times,serif" font-size="14.00" fill="#000000">out_file</text>
</g>
<!-- skullstrip_bold_wfinputnode&#45;&gt;skullstrip_bold_wfskullstrip_first_pass -->
<g id="edge7" class="edge">
<title>skullstrip_bold_wfinputnode:e&#45;&gt;skullstrip_bold_wfskullstrip_first_pass:w</title>
<path fill="none" stroke="#000000" d="M184,-571C203.691,-571 174.0007,-496.9281 177.4884,-472.6233"/>
<polygon fill="#000000" stroke="#000000" points="180.1664,-474.877 184,-465 174.8438,-470.3305 180.1664,-474.877"/>
</g>
<!-- skullstrip_bold_wfapply_mask -->
<g id="node5" class="node">
<title>skullstrip_bold_wfapply_mask</title>
<polygon fill="none" stroke="#000000" points="697,-129.5 697,-198.5 953,-198.5 953,-129.5 697,-129.5"/>
<text text-anchor="middle" x="739.5" y="-183.3" font-family="Times,serif" font-size="14.00" fill="#000000">IN</text>
<polyline fill="none" stroke="#000000" points="697,-175.5 782,-175.5 "/>
<text text-anchor="middle" x="739.5" y="-160.3" font-family="Times,serif" font-size="14.00" fill="#000000">in_file</text>
<polyline fill="none" stroke="#000000" points="697,-152.5 782,-152.5 "/>
<text text-anchor="middle" x="739.5" y="-137.3" font-family="Times,serif" font-size="14.00" fill="#000000">mask_file</text>
<polyline fill="none" stroke="#000000" points="782,-129.5 782,-198.5 "/>
<text text-anchor="middle" x="832.5" y="-183.3" font-family="Times,serif" font-size="14.00" fill="#000000">apply_mask</text>
<polyline fill="none" stroke="#000000" points="782,-175.5 883,-175.5 "/>
<text text-anchor="middle" x="832.5" y="-160.3" font-family="Times,serif" font-size="14.00" fill="#000000">fsl</text>
<polyline fill="none" stroke="#000000" points="782,-152.5 883,-152.5 "/>
<text text-anchor="middle" x="832.5" y="-137.3" font-family="Times,serif" font-size="14.00" fill="#000000"> </text>
<polyline fill="none" stroke="#000000" points="883,-129.5 883,-198.5 "/>
<text text-anchor="middle" x="918" y="-177.8" font-family="Times,serif" font-size="14.00" fill="#000000">OUT</text>
<polyline fill="none" stroke="#000000" points="883,-164.5 953,-164.5 "/>
<text text-anchor="middle" x="918" y="-143.3" font-family="Times,serif" font-size="14.00" fill="#000000">out_file</text>
</g>
<!-- skullstrip_bold_wfinputnode&#45;&gt;skullstrip_bold_wfapply_mask -->
<g id="edge5" class="edge">
<title>skullstrip_bold_wfinputnode:e&#45;&gt;skullstrip_bold_wfapply_mask:w</title>
<path fill="none" stroke="#000000" d="M184,-571C302.9919,-571 633.7718,-513.0302 695,-411 707.5776,-390.0408 677.5678,-210.4916 690.2416,-171.4659"/>
<polygon fill="#000000" stroke="#000000" points="692.8837,-173.7625 697,-164 687.6941,-169.0648 692.8837,-173.7625"/>
</g>
<!-- skullstrip_bold_wfmask_reportlet -->
<g id="node6" class="node">
<title>skullstrip_bold_wfmask_reportlet</title>
<polygon fill="none" stroke="#000000" points="291,-129.5 291,-198.5 641,-198.5 641,-129.5 291,-129.5"/>
<text text-anchor="middle" x="357" y="-183.3" font-family="Times,serif" font-size="14.00" fill="#000000">IN</text>
<polyline fill="none" stroke="#000000" points="291,-175.5 423,-175.5 "/>
<text text-anchor="middle" x="357" y="-160.3" font-family="Times,serif" font-size="14.00" fill="#000000">background_file</text>
<polyline fill="none" stroke="#000000" points="291,-152.5 423,-152.5 "/>
<text text-anchor="middle" x="357" y="-137.3" font-family="Times,serif" font-size="14.00" fill="#000000">mask_file</text>
<polyline fill="none" stroke="#000000" points="423,-129.5 423,-198.5 "/>
<text text-anchor="middle" x="486" y="-183.3" font-family="Times,serif" font-size="14.00" fill="#000000">mask_reportlet</text>
<polyline fill="none" stroke="#000000" points="423,-175.5 549,-175.5 "/>
<text text-anchor="middle" x="486" y="-160.3" font-family="Times,serif" font-size="14.00" fill="#000000">reportlets</text>
<polyline fill="none" stroke="#000000" points="423,-152.5 549,-152.5 "/>
<text text-anchor="middle" x="486" y="-137.3" font-family="Times,serif" font-size="14.00" fill="#000000"> </text>
<polyline fill="none" stroke="#000000" points="549,-129.5 549,-198.5 "/>
<text text-anchor="middle" x="595" y="-177.8" font-family="Times,serif" font-size="14.00" fill="#000000">OUT</text>
<polyline fill="none" stroke="#000000" points="549,-164.5 641,-164.5 "/>
<text text-anchor="middle" x="595" y="-143.3" font-family="Times,serif" font-size="14.00" fill="#000000">out_report</text>
</g>
<!-- skullstrip_bold_wfinputnode&#45;&gt;skullstrip_bold_wfmask_reportlet -->
<g id="edge6" class="edge">
<title>skullstrip_bold_wfinputnode:e&#45;&gt;skullstrip_bold_wfmask_reportlet:w</title>
<path fill="none" stroke="#000000" d="M184,-571C192,-571 184.8729,-560.9522 184,-553 182.2115,-536.7076 177.7885,-533.2924 176,-517 172.6053,-486.0747 170.0331,-477.5335 176,-447 201.3524,-317.2678 157.6516,-171.8857 280.6368,-164.3093"/>
<polygon fill="#000000" stroke="#000000" points="281.1089,-167.7969 291,-164 280.9,-160.8 281.1089,-167.7969"/>
</g>
<!-- skullstrip_bold_wfskullstrip_second_pass -->
<g id="node3" class="node">
<title>skullstrip_bold_wfskullstrip_second_pass</title>
<polygon fill="none" stroke="#000000" points="374,-341.5 374,-410.5 686,-410.5 686,-341.5 374,-341.5"/>
<text text-anchor="middle" x="404" y="-389.8" font-family="Times,serif" font-size="14.00" fill="#000000">IN</text>
<polyline fill="none" stroke="#000000" points="374,-376.5 434,-376.5 "/>
<text text-anchor="middle" x="404" y="-355.3" font-family="Times,serif" font-size="14.00" fill="#000000">in_file</text>
<polyline fill="none" stroke="#000000" points="434,-341.5 434,-410.5 "/>
<text text-anchor="middle" x="525" y="-395.3" font-family="Times,serif" font-size="14.00" fill="#000000">skullstrip_second_pass</text>
<polyline fill="none" stroke="#000000" points="434,-387.5 616,-387.5 "/>
<text text-anchor="middle" x="525" y="-372.3" font-family="Times,serif" font-size="14.00" fill="#000000">afni</text>
<polyline fill="none" stroke="#000000" points="434,-364.5 616,-364.5 "/>
<text text-anchor="middle" x="525" y="-349.3" font-family="Times,serif" font-size="14.00" fill="#000000"> </text>
<polyline fill="none" stroke="#000000" points="616,-341.5 616,-410.5 "/>
<text text-anchor="middle" x="651" y="-389.8" font-family="Times,serif" font-size="14.00" fill="#000000">OUT</text>
<polyline fill="none" stroke="#000000" points="616,-376.5 686,-376.5 "/>
<text text-anchor="middle" x="651" y="-355.3" font-family="Times,serif" font-size="14.00" fill="#000000">out_file</text>
</g>
<!-- skullstrip_bold_wfskullstrip_first_pass&#45;&gt;skullstrip_bold_wfskullstrip_second_pass -->
<g id="edge10" class="edge">
<title>skullstrip_bold_wfskullstrip_first_pass:e&#45;&gt;skullstrip_bold_wfskullstrip_second_pass:w</title>
<path fill="none" stroke="#000000" d="M492,-459C497.3333,-459 495.1737,-451.2863 492,-447 459.3724,-402.9335 406.6276,-455.0665 374,-411 369.004,-404.2524 365.1677,-379.8595 367.8754,-367.0241"/>
<polygon fill="#000000" stroke="#000000" points="370.7148,-369.0727 374,-359 365.1504,-364.8255 370.7148,-369.0727"/>
</g>
<!-- skullstrip_bold_wfcombine_masks -->
<g id="node4" class="node">
<title>skullstrip_bold_wfcombine_masks</title>
<polygon fill="none" stroke="#000000" points="363,-235.5 363,-304.5 669,-304.5 669,-235.5 363,-235.5"/>
<text text-anchor="middle" x="415.5" y="-289.3" font-family="Times,serif" font-size="14.00" fill="#000000">IN</text>
<polyline fill="none" stroke="#000000" points="363,-281.5 468,-281.5 "/>
<text text-anchor="middle" x="415.5" y="-266.3" font-family="Times,serif" font-size="14.00" fill="#000000">in_file</text>
<polyline fill="none" stroke="#000000" points="363,-258.5 468,-258.5 "/>
<text text-anchor="middle" x="415.5" y="-243.3" font-family="Times,serif" font-size="14.00" fill="#000000">operand_file</text>
<polyline fill="none" stroke="#000000" points="468,-235.5 468,-304.5 "/>
<text text-anchor="middle" x="533.5" y="-289.3" font-family="Times,serif" font-size="14.00" fill="#000000">combine_masks</text>
<polyline fill="none" stroke="#000000" points="468,-281.5 599,-281.5 "/>
<text text-anchor="middle" x="533.5" y="-266.3" font-family="Times,serif" font-size="14.00" fill="#000000">fsl</text>
<polyline fill="none" stroke="#000000" points="468,-258.5 599,-258.5 "/>
<text text-anchor="middle" x="533.5" y="-243.3" font-family="Times,serif" font-size="14.00" fill="#000000"> </text>
<polyline fill="none" stroke="#000000" points="599,-235.5 599,-304.5 "/>
<text text-anchor="middle" x="634" y="-283.8" font-family="Times,serif" font-size="14.00" fill="#000000">OUT</text>
<polyline fill="none" stroke="#000000" points="599,-270.5 669,-270.5 "/>
<text text-anchor="middle" x="634" y="-249.3" font-family="Times,serif" font-size="14.00" fill="#000000">out_file</text>
</g>
<!-- skullstrip_bold_wfskullstrip_first_pass&#45;&gt;skullstrip_bold_wfcombine_masks -->
<g id="edge9" class="edge">
<title>skullstrip_bold_wfskullstrip_first_pass:e&#45;&gt;skullstrip_bold_wfcombine_masks:w</title>
<path fill="none" stroke="#000000" d="M492,-482C507.5556,-482 501.3804,-459.409 492,-447 456.6215,-400.199 400.8184,-457.4652 365,-411 328.9787,-364.2715 303.4626,-280.5634 352.8853,-270.9142"/>
<polygon fill="#000000" stroke="#000000" points="353.3557,-274.3861 363,-270 352.7255,-267.4145 353.3557,-274.3861"/>
</g>
<!-- skullstrip_bold_wfskullstrip_second_pass&#45;&gt;skullstrip_bold_wfcombine_masks -->
<g id="edge11" class="edge">
<title>skullstrip_bold_wfskullstrip_second_pass:e&#45;&gt;skullstrip_bold_wfcombine_masks:w</title>
<path fill="none" stroke="#000000" d="M686,-359C694,-359 691.3344,-346.9619 686,-341 589.6852,-233.354 459.3148,-412.646 363,-305 348.4972,-288.791 340.1163,-258.6437 353.3355,-249.6184"/>
<polygon fill="#000000" stroke="#000000" points="354.2632,-252.9933 363,-247 352.4327,-246.2368 354.2632,-252.9933"/>
</g>
<!-- skullstrip_bold_wfcombine_masks&#45;&gt;skullstrip_bold_wfapply_mask -->
<g id="edge2" class="edge">
<title>skullstrip_bold_wfcombine_masks:e&#45;&gt;skullstrip_bold_wfapply_mask:w</title>
<path fill="none" stroke="#000000" d="M669,-253C693.7935,-253 676.9799,-223.0515 683,-199 685.4146,-189.3533 684.6241,-161.5517 689.6716,-148.2537"/>
<polygon fill="#000000" stroke="#000000" points="692.355,-150.5223 697,-141 687.4306,-145.5473 692.355,-150.5223"/>
</g>
<!-- skullstrip_bold_wfcombine_masks&#45;&gt;skullstrip_bold_wfmask_reportlet -->
<g id="edge3" class="edge">
<title>skullstrip_bold_wfcombine_masks:e&#45;&gt;skullstrip_bold_wfmask_reportlet:w</title>
<path fill="none" stroke="#000000" d="M669,-253C677,-253 674.382,-240.9189 669,-235 612.2331,-172.5699 347.7669,-261.4301 291,-199 276.3676,-182.9079 268.0758,-152.6802 281.326,-143.6269"/>
<polygon fill="#000000" stroke="#000000" points="282.2667,-146.9983 291,-141 280.4322,-140.2429 282.2667,-146.9983"/>
</g>
<!-- skullstrip_bold_wfoutputnode -->
<g id="node7" class="node">
<title>skullstrip_bold_wfoutputnode</title>
<polygon fill="none" stroke="#000000" points="669.5,-.5 669.5,-92.5 966.5,-92.5 966.5,-.5 669.5,-.5"/>
<text text-anchor="middle" x="744" y="-77.3" font-family="Times,serif" font-size="14.00" fill="#000000">IN</text>
<polyline fill="none" stroke="#000000" points="669.5,-69.5 818.5,-69.5 "/>
<text text-anchor="middle" x="744" y="-54.3" font-family="Times,serif" font-size="14.00" fill="#000000">mask_file</text>
<polyline fill="none" stroke="#000000" points="669.5,-46.5 818.5,-46.5 "/>
<text text-anchor="middle" x="744" y="-31.3" font-family="Times,serif" font-size="14.00" fill="#000000">out_report</text>
<polyline fill="none" stroke="#000000" points="669.5,-23.5 818.5,-23.5 "/>
<text text-anchor="middle" x="744" y="-8.3" font-family="Times,serif" font-size="14.00" fill="#000000">skull_stripped_file</text>
<polyline fill="none" stroke="#000000" points="818.5,-.5 818.5,-92.5 "/>
<text text-anchor="middle" x="867.5" y="-73.8" font-family="Times,serif" font-size="14.00" fill="#000000">outputnode</text>
<polyline fill="none" stroke="#000000" points="818.5,-62.5 916.5,-62.5 "/>
<text text-anchor="middle" x="867.5" y="-43.3" font-family="Times,serif" font-size="14.00" fill="#000000">utility</text>
<polyline fill="none" stroke="#000000" points="818.5,-31.5 916.5,-31.5 "/>
<text text-anchor="middle" x="867.5" y="-12.3" font-family="Times,serif" font-size="14.00" fill="#000000"> </text>
<polyline fill="none" stroke="#000000" points="916.5,-.5 916.5,-92.5 "/>
<text text-anchor="middle" x="941.5" y="-42.8" font-family="Times,serif" font-size="14.00" fill="#000000">OUT</text>
</g>
<!-- skullstrip_bold_wfcombine_masks&#45;&gt;skullstrip_bold_wfoutputnode -->
<g id="edge4" class="edge">
<title>skullstrip_bold_wfcombine_masks:e&#45;&gt;skullstrip_bold_wfoutputnode:w</title>
<path fill="none" stroke="#000000" d="M669,-253C751.5612,-253 597.5652,-75.5821 658.8732,-59.6422"/>
<polygon fill="#000000" stroke="#000000" points="659.4553,-63.0989 669,-58.5 658.6707,-56.143 659.4553,-63.0989"/>
</g>
<!-- skullstrip_bold_wfapply_mask&#45;&gt;skullstrip_bold_wfoutputnode -->
<g id="edge1" class="edge">
<title>skullstrip_bold_wfapply_mask:e&#45;&gt;skullstrip_bold_wfoutputnode:w</title>
<path fill="none" stroke="#000000" d="M953,-147C961,-147 958.2892,-135.002 953,-129 868.88,-33.5438 753.12,-188.4562 669,-93 647.5774,-68.6904 635.4966,-22.657 659.1142,-13.2173"/>
<polygon fill="#000000" stroke="#000000" points="659.7466,-16.6599 669,-11.5 658.5485,-9.7632 659.7466,-16.6599"/>
</g>
<!-- skullstrip_bold_wfmask_reportlet&#45;&gt;skullstrip_bold_wfoutputnode -->
<g id="edge8" class="edge">
<title>skullstrip_bold_wfmask_reportlet:e&#45;&gt;skullstrip_bold_wfoutputnode:w</title>
<path fill="none" stroke="#000000" d="M641,-147C663.1398,-147 648.8791,-63.9159 660.7813,-40.5485"/>
<polygon fill="#000000" stroke="#000000" points="663.0205,-43.2462 669,-34.5 658.8714,-37.6084 663.0205,-43.2462"/>
</g>
</g>
</svg>
