<?xml version="1.0" encoding="UTF-8" standalone="no"?>
<!DOCTYPE svg PUBLIC "-//W3C//DTD SVG 1.1//EN"
 "http://www.w3.org/Graphics/SVG/1.1/DTD/svg11.dtd">
<!-- Generated by graphviz version 2.40.1 (20161225.0304)
 -->
<!-- Title: structs Pages: 1 -->
<svg width="1071pt" height="995pt"
 viewBox="0.00 0.00 1071.07 995.00" xmlns="http://www.w3.org/2000/svg" xmlns:xlink="http://www.w3.org/1999/xlink">
<g id="graph0" class="graph" transform="scale(1 1) rotate(0) translate(4 991)">
<title>structs</title>
<polygon fill="#ffffff" stroke="transparent" points="-4,4 -4,-991 1067.0706,-991 1067.0706,4 -4,4"/>
<!-- epi_reference_wfinputnode -->
<g id="node1" class="node">
<title>epi_reference_wfinputnode</title>
<polygon fill="none" stroke="#000000" points="367.0706,-917.5 367.0706,-986.5 567.0706,-986.5 567.0706,-917.5 367.0706,-917.5"/>
<text text-anchor="middle" x="384.5706" y="-948.3" font-family="Times,serif" font-size="14.00" fill="#000000">IN</text>
<polyline fill="none" stroke="#000000" points="402.0706,-917.5 402.0706,-986.5 "/>
<text text-anchor="middle" x="446.5706" y="-971.3" font-family="Times,serif" font-size="14.00" fill="#000000">inputnode</text>
<polyline fill="none" stroke="#000000" points="402.0706,-963.5 491.0706,-963.5 "/>
<text text-anchor="middle" x="446.5706" y="-948.3" font-family="Times,serif" font-size="14.00" fill="#000000">utility</text>
<polyline fill="none" stroke="#000000" points="402.0706,-940.5 491.0706,-940.5 "/>
<text text-anchor="middle" x="446.5706" y="-925.3" font-family="Times,serif" font-size="14.00" fill="#000000"> </text>
<polyline fill="none" stroke="#000000" points="491.0706,-917.5 491.0706,-986.5 "/>
<text text-anchor="middle" x="529.0706" y="-971.3" font-family="Times,serif" font-size="14.00" fill="#000000">OUT</text>
<polyline fill="none" stroke="#000000" points="491.0706,-963.5 567.0706,-963.5 "/>
<text text-anchor="middle" x="529.0706" y="-948.3" font-family="Times,serif" font-size="14.00" fill="#000000">in_files</text>
<polyline fill="none" stroke="#000000" points="491.0706,-940.5 567.0706,-940.5 "/>
<text text-anchor="middle" x="529.0706" y="-925.3" font-family="Times,serif" font-size="14.00" fill="#000000">t_masks</text>
</g>
<!-- epi_reference_wfvalidate_nii -->
<g id="node2" class="node">
<title>epi_reference_wfvalidate_nii</title>
<polygon fill="none" stroke="#000000" points="581.5706,-811.5 581.5706,-880.5 832.5706,-880.5 832.5706,-811.5 581.5706,-811.5"/>
<text text-anchor="middle" x="611.5706" y="-859.8" font-family="Times,serif" font-size="14.00" fill="#000000">IN</text>
<polyline fill="none" stroke="#000000" points="581.5706,-846.5 641.5706,-846.5 "/>
<text text-anchor="middle" x="611.5706" y="-825.3" font-family="Times,serif" font-size="14.00" fill="#000000">in_file</text>
<polyline fill="none" stroke="#000000" points="641.5706,-811.5 641.5706,-880.5 "/>
<text text-anchor="middle" x="691.0706" y="-865.3" font-family="Times,serif" font-size="14.00" fill="#000000">validate_nii</text>
<polyline fill="none" stroke="#000000" points="641.5706,-857.5 740.5706,-857.5 "/>
<text text-anchor="middle" x="691.0706" y="-842.3" font-family="Times,serif" font-size="14.00" fill="#000000">header</text>
<polyline fill="none" stroke="#000000" points="641.5706,-834.5 740.5706,-834.5 "/>
<text text-anchor="middle" x="691.0706" y="-819.3" font-family="Times,serif" font-size="14.00" fill="#000000"> </text>
<polyline fill="none" stroke="#000000" points="740.5706,-811.5 740.5706,-880.5 "/>
<text text-anchor="middle" x="786.5706" y="-865.3" font-family="Times,serif" font-size="14.00" fill="#000000">OUT</text>
<polyline fill="none" stroke="#000000" points="740.5706,-857.5 832.5706,-857.5 "/>
<text text-anchor="middle" x="786.5706" y="-842.3" font-family="Times,serif" font-size="14.00" fill="#000000">out_file</text>
<polyline fill="none" stroke="#000000" points="740.5706,-834.5 832.5706,-834.5 "/>
<text text-anchor="middle" x="786.5706" y="-819.3" font-family="Times,serif" font-size="14.00" fill="#000000">out_report</text>
</g>
<!-- epi_reference_wfinputnode&#45;&gt;epi_reference_wfvalidate_nii -->
<g id="edge7" class="edge">
<title>epi_reference_wfinputnode:e&#45;&gt;epi_reference_wfvalidate_nii:w</title>
<path fill="none" stroke="#000000" d="M567.0706,-952C590.7119,-952 563.7424,-861.1614 573.1493,-835.613"/>
<polygon fill="#000000" stroke="#000000" points="575.6371,-838.0955 581.0706,-829 571.151,-832.7219 575.6371,-838.0955"/>
</g>
<!-- epi_reference_wfper_run_avgs -->
<g id="node3" class="node">
<title>epi_reference_wfper_run_avgs</title>
<polygon fill="none" stroke="#000000" points="553.0706,-705.5 553.0706,-774.5 813.0706,-774.5 813.0706,-705.5 553.0706,-705.5"/>
<text text-anchor="middle" x="587.0706" y="-759.3" font-family="Times,serif" font-size="14.00" fill="#000000">IN</text>
<polyline fill="none" stroke="#000000" points="553.0706,-751.5 621.0706,-751.5 "/>
<text text-anchor="middle" x="587.0706" y="-736.3" font-family="Times,serif" font-size="14.00" fill="#000000">in_file</text>
<polyline fill="none" stroke="#000000" points="553.0706,-728.5 621.0706,-728.5 "/>
<text text-anchor="middle" x="587.0706" y="-713.3" font-family="Times,serif" font-size="14.00" fill="#000000">t_mask</text>
<polyline fill="none" stroke="#000000" points="621.0706,-705.5 621.0706,-774.5 "/>
<text text-anchor="middle" x="677.5706" y="-759.3" font-family="Times,serif" font-size="14.00" fill="#000000">per_run_avgs</text>
<polyline fill="none" stroke="#000000" points="621.0706,-751.5 734.0706,-751.5 "/>
<text text-anchor="middle" x="677.5706" y="-736.3" font-family="Times,serif" font-size="14.00" fill="#000000">images</text>
<polyline fill="none" stroke="#000000" points="621.0706,-728.5 734.0706,-728.5 "/>
<text text-anchor="middle" x="677.5706" y="-713.3" font-family="Times,serif" font-size="14.00" fill="#000000"> </text>
<polyline fill="none" stroke="#000000" points="734.0706,-705.5 734.0706,-774.5 "/>
<text text-anchor="middle" x="773.5706" y="-759.3" font-family="Times,serif" font-size="14.00" fill="#000000">OUT</text>
<polyline fill="none" stroke="#000000" points="734.0706,-751.5 813.0706,-751.5 "/>
<text text-anchor="middle" x="773.5706" y="-736.3" font-family="Times,serif" font-size="14.00" fill="#000000">out_drift</text>
<polyline fill="none" stroke="#000000" points="734.0706,-728.5 813.0706,-728.5 "/>
<text text-anchor="middle" x="773.5706" y="-713.3" font-family="Times,serif" font-size="14.00" fill="#000000">out_file</text>
</g>
<!-- epi_reference_wfinputnode&#45;&gt;epi_reference_wfper_run_avgs -->
<g id="edge8" class="edge">
<title>epi_reference_wfinputnode:e&#45;&gt;epi_reference_wfper_run_avgs:w</title>
<path fill="none" stroke="#000000" d="M567.0706,-929C587.7727,-929 543.2438,-765.9621 547.893,-725.8395"/>
<polygon fill="#000000" stroke="#000000" points="551.0364,-727.3977 553.0706,-717 544.9963,-723.8598 551.0364,-727.3977"/>
</g>
<!-- epi_reference_wfvalidate_nii&#45;&gt;epi_reference_wfper_run_avgs -->
<g id="edge14" class="edge">
<title>epi_reference_wfvalidate_nii:e&#45;&gt;epi_reference_wfper_run_avgs:w</title>
<path fill="none" stroke="#000000" d="M833.0706,-846C848.6262,-846 843.3448,-822.6797 833.0706,-811 750.2005,-716.793 635.9407,-869.207 553.0706,-775 545.8466,-766.7877 541.0909,-752.8205 544.3113,-745.2512"/>
<polygon fill="#000000" stroke="#000000" points="546.2934,-748.1437 553.0706,-740 542.6941,-742.14 546.2934,-748.1437"/>
</g>
<!-- epi_reference_wfoutputnode -->
<g id="node9" class="node">
<title>epi_reference_wfoutputnode</title>
<polygon fill="none" stroke="#000000" points="775.0706,-.5 775.0706,-138.5 1063.0706,-138.5 1063.0706,-.5 775.0706,-.5"/>
<text text-anchor="middle" x="845.0706" y="-123.3" font-family="Times,serif" font-size="14.00" fill="#000000">IN</text>
<polyline fill="none" stroke="#000000" points="775.0706,-115.5 915.0706,-115.5 "/>
<text text-anchor="middle" x="845.0706" y="-100.3" font-family="Times,serif" font-size="14.00" fill="#000000">drift_factors</text>
<polyline fill="none" stroke="#000000" points="775.0706,-92.5 915.0706,-92.5 "/>
<text text-anchor="middle" x="845.0706" y="-77.3" font-family="Times,serif" font-size="14.00" fill="#000000">epi_ref_file</text>
<polyline fill="none" stroke="#000000" points="775.0706,-69.5 915.0706,-69.5 "/>
<text text-anchor="middle" x="845.0706" y="-54.3" font-family="Times,serif" font-size="14.00" fill="#000000">per_run_ref_files</text>
<polyline fill="none" stroke="#000000" points="775.0706,-46.5 915.0706,-46.5 "/>
<text text-anchor="middle" x="845.0706" y="-31.3" font-family="Times,serif" font-size="14.00" fill="#000000">validation_report</text>
<polyline fill="none" stroke="#000000" points="775.0706,-23.5 915.0706,-23.5 "/>
<text text-anchor="middle" x="845.0706" y="-8.3" font-family="Times,serif" font-size="14.00" fill="#000000">xfm_files</text>
<polyline fill="none" stroke="#000000" points="915.0706,-.5 915.0706,-138.5 "/>
<text text-anchor="middle" x="964.0706" y="-111.8" font-family="Times,serif" font-size="14.00" fill="#000000">outputnode</text>
<polyline fill="none" stroke="#000000" points="915.0706,-92.5 1013.0706,-92.5 "/>
<text text-anchor="middle" x="964.0706" y="-65.8" font-family="Times,serif" font-size="14.00" fill="#000000">utility</text>
<polyline fill="none" stroke="#000000" points="915.0706,-46.5 1013.0706,-46.5 "/>
<text text-anchor="middle" x="964.0706" y="-19.8" font-family="Times,serif" font-size="14.00" fill="#000000"> </text>
<polyline fill="none" stroke="#000000" points="1013.0706,-.5 1013.0706,-138.5 "/>
<text text-anchor="middle" x="1038.0706" y="-65.8" font-family="Times,serif" font-size="14.00" fill="#000000">OUT</text>
</g>
<!-- epi_reference_wfvalidate_nii&#45;&gt;epi_reference_wfoutputnode -->
<g id="edge15" class="edge">
<title>epi_reference_wfvalidate_nii:e&#45;&gt;epi_reference_wfoutputnode:w</title>
<path fill="none" stroke="#000000" d="M833.0706,-823C917.4507,-823 851.0706,-718.3801 851.0706,-634 851.0706,-634 851.0706,-634 851.0706,-316 851.0706,-250.2192 838.1787,-232.4124 806.0706,-175 795.7644,-156.5715 782.4188,-158.7947 775.0706,-139 760.2331,-99.0306 733.4991,-44.3839 765.1397,-35.6873"/>
<polygon fill="#000000" stroke="#000000" points="765.5569,-39.1625 775.0706,-34.5 764.7258,-32.212 765.5569,-39.1625"/>
</g>
<!-- epi_reference_wfclip_avgs -->
<g id="node4" class="node">
<title>epi_reference_wfclip_avgs</title>
<polygon fill="none" stroke="#000000" points="418.5706,-599.5 418.5706,-668.5 631.5706,-668.5 631.5706,-599.5 418.5706,-599.5"/>
<text text-anchor="middle" x="448.5706" y="-647.8" font-family="Times,serif" font-size="14.00" fill="#000000">IN</text>
<polyline fill="none" stroke="#000000" points="418.5706,-634.5 478.5706,-634.5 "/>
<text text-anchor="middle" x="448.5706" y="-613.3" font-family="Times,serif" font-size="14.00" fill="#000000">in_file</text>
<polyline fill="none" stroke="#000000" points="478.5706,-599.5 478.5706,-668.5 "/>
<text text-anchor="middle" x="520.0706" y="-653.3" font-family="Times,serif" font-size="14.00" fill="#000000">clip_avgs</text>
<polyline fill="none" stroke="#000000" points="478.5706,-645.5 561.5706,-645.5 "/>
<text text-anchor="middle" x="520.0706" y="-630.3" font-family="Times,serif" font-size="14.00" fill="#000000">nibabel</text>
<polyline fill="none" stroke="#000000" points="478.5706,-622.5 561.5706,-622.5 "/>
<text text-anchor="middle" x="520.0706" y="-607.3" font-family="Times,serif" font-size="14.00" fill="#000000"> </text>
<polyline fill="none" stroke="#000000" points="561.5706,-599.5 561.5706,-668.5 "/>
<text text-anchor="middle" x="596.5706" y="-647.8" font-family="Times,serif" font-size="14.00" fill="#000000">OUT</text>
<polyline fill="none" stroke="#000000" points="561.5706,-634.5 631.5706,-634.5 "/>
<text text-anchor="middle" x="596.5706" y="-613.3" font-family="Times,serif" font-size="14.00" fill="#000000">out_file</text>
</g>
<!-- epi_reference_wfper_run_avgs&#45;&gt;epi_reference_wfclip_avgs -->
<g id="edge12" class="edge">
<title>epi_reference_wfper_run_avgs:e&#45;&gt;epi_reference_wfclip_avgs:w</title>
<path fill="none" stroke="#000000" d="M813.0706,-717C818.4039,-717 816.6666,-708.9387 813.0706,-705 753.6408,-639.9075 477.5004,-734.0925 418.0706,-669 405.2879,-654.9993 397.9251,-628.977 408.4491,-620.0773"/>
<polygon fill="#000000" stroke="#000000" points="409.6122,-623.3801 418.0706,-617 407.4797,-616.7128 409.6122,-623.3801"/>
</g>
<!-- epi_reference_wfper_run_avgs&#45;&gt;epi_reference_wfoutputnode -->
<g id="edge11" class="edge">
<title>epi_reference_wfper_run_avgs:e&#45;&gt;epi_reference_wfoutputnode:w</title>
<path fill="none" stroke="#000000" d="M813.0706,-740C860.1817,-740 813.0706,-575.1111 813.0706,-528 813.0706,-528 813.0706,-528 813.0706,-316 813.0706,-275.7704 779.3165,-179.0049 775.0706,-139 774.0718,-129.5893 768.4651,-118.6532 767.9237,-111.6593"/>
<polygon fill="#000000" stroke="#000000" points="770.4827,-114.05 775.0706,-104.5 765.5286,-109.1045 770.4827,-114.05"/>
</g>
<!-- epi_reference_wfn4_avgs -->
<g id="node5" class="node">
<title>epi_reference_wfn4_avgs</title>
<polygon fill="none" stroke="#000000" points="479.5706,-493.5 479.5706,-562.5 774.5706,-562.5 774.5706,-493.5 479.5706,-493.5"/>
<text text-anchor="middle" x="532.0706" y="-541.8" font-family="Times,serif" font-size="14.00" fill="#000000">IN</text>
<polyline fill="none" stroke="#000000" points="479.5706,-528.5 584.5706,-528.5 "/>
<text text-anchor="middle" x="532.0706" y="-507.3" font-family="Times,serif" font-size="14.00" fill="#000000">input_image</text>
<polyline fill="none" stroke="#000000" points="584.5706,-493.5 584.5706,-562.5 "/>
<text text-anchor="middle" x="622.0706" y="-547.3" font-family="Times,serif" font-size="14.00" fill="#000000">n4_avgs</text>
<polyline fill="none" stroke="#000000" points="584.5706,-539.5 659.5706,-539.5 "/>
<text text-anchor="middle" x="622.0706" y="-524.3" font-family="Times,serif" font-size="14.00" fill="#000000">ants</text>
<polyline fill="none" stroke="#000000" points="584.5706,-516.5 659.5706,-516.5 "/>
<text text-anchor="middle" x="622.0706" y="-501.3" font-family="Times,serif" font-size="14.00" fill="#000000"> </text>
<polyline fill="none" stroke="#000000" points="659.5706,-493.5 659.5706,-562.5 "/>
<text text-anchor="middle" x="717.0706" y="-541.8" font-family="Times,serif" font-size="14.00" fill="#000000">OUT</text>
<polyline fill="none" stroke="#000000" points="659.5706,-528.5 774.5706,-528.5 "/>
<text text-anchor="middle" x="717.0706" y="-507.3" font-family="Times,serif" font-size="14.00" fill="#000000">output_image</text>
</g>
<!-- epi_reference_wfclip_avgs&#45;&gt;epi_reference_wfn4_avgs -->
<g id="edge1" class="edge">
<title>epi_reference_wfclip_avgs:e&#45;&gt;epi_reference_wfn4_avgs:w</title>
<path fill="none" stroke="#000000" d="M632.0706,-617C640.0706,-617 637.0376,-605.2713 632.0706,-599 588.6985,-544.2382 522.4428,-617.7618 479.0706,-563 467.412,-548.2799 459.4417,-523.1518 469.259,-514.2463"/>
<polygon fill="#000000" stroke="#000000" points="470.6762,-517.4641 479.0706,-511 468.4773,-510.8184 470.6762,-517.4641"/>
</g>
<!-- epi_reference_wfclip_bg_noise -->
<g id="node6" class="node">
<title>epi_reference_wfclip_bg_noise</title>
<polygon fill="none" stroke="#000000" points="15.5706,-387.5 15.5706,-456.5 258.5706,-456.5 258.5706,-387.5 15.5706,-387.5"/>
<text text-anchor="middle" x="45.5706" y="-435.8" font-family="Times,serif" font-size="14.00" fill="#000000">IN</text>
<polyline fill="none" stroke="#000000" points="15.5706,-422.5 75.5706,-422.5 "/>
<text text-anchor="middle" x="45.5706" y="-401.3" font-family="Times,serif" font-size="14.00" fill="#000000">in_file</text>
<polyline fill="none" stroke="#000000" points="75.5706,-387.5 75.5706,-456.5 "/>
<text text-anchor="middle" x="132.0706" y="-441.3" font-family="Times,serif" font-size="14.00" fill="#000000">clip_bg_noise</text>
<polyline fill="none" stroke="#000000" points="75.5706,-433.5 188.5706,-433.5 "/>
<text text-anchor="middle" x="132.0706" y="-418.3" font-family="Times,serif" font-size="14.00" fill="#000000">nibabel</text>
<polyline fill="none" stroke="#000000" points="75.5706,-410.5 188.5706,-410.5 "/>
<text text-anchor="middle" x="132.0706" y="-395.3" font-family="Times,serif" font-size="14.00" fill="#000000"> </text>
<polyline fill="none" stroke="#000000" points="188.5706,-387.5 188.5706,-456.5 "/>
<text text-anchor="middle" x="223.5706" y="-435.8" font-family="Times,serif" font-size="14.00" fill="#000000">OUT</text>
<polyline fill="none" stroke="#000000" points="188.5706,-422.5 258.5706,-422.5 "/>
<text text-anchor="middle" x="223.5706" y="-401.3" font-family="Times,serif" font-size="14.00" fill="#000000">out_file</text>
</g>
<!-- epi_reference_wfn4_avgs&#45;&gt;epi_reference_wfclip_bg_noise -->
<g id="edge9" class="edge">
<title>epi_reference_wfn4_avgs:e&#45;&gt;epi_reference_wfclip_bg_noise:w</title>
<path fill="none" stroke="#000000" d="M775.0706,-511C783.0706,-511 780.592,-498.7891 775.0706,-493 716.7238,-431.8239 73.4174,-518.1761 15.0706,-457 1.986,-443.281 -5.1834,-417.0783 5.4198,-408.1046"/>
<polygon fill="#000000" stroke="#000000" points="6.6229,-411.3943 15.0706,-405 4.4792,-404.7306 6.6229,-411.3943"/>
</g>
<!-- epi_reference_wfn4_avgs&#45;&gt;epi_reference_wfoutputnode -->
<g id="edge10" class="edge">
<title>epi_reference_wfn4_avgs:e&#45;&gt;epi_reference_wfoutputnode:w</title>
<path fill="none" stroke="#000000" d="M775.0706,-511C822.0149,-511 737.7535,-117.3827 766.7596,-63.5679"/>
<polygon fill="#000000" stroke="#000000" points="769.0579,-66.2235 775.0706,-57.5 764.9303,-60.5699 769.0579,-66.2235"/>
</g>
<!-- epi_reference_wfepi_merge -->
<g id="node7" class="node">
<title>epi_reference_wfepi_merge</title>
<polygon fill="none" stroke="#000000" points="259.0706,-281.5 259.0706,-350.5 611.0706,-350.5 611.0706,-281.5 259.0706,-281.5"/>
<text text-anchor="middle" x="314.0706" y="-335.3" font-family="Times,serif" font-size="14.00" fill="#000000">IN</text>
<polyline fill="none" stroke="#000000" points="259.0706,-327.5 369.0706,-327.5 "/>
<text text-anchor="middle" x="314.0706" y="-312.3" font-family="Times,serif" font-size="14.00" fill="#000000">in_files</text>
<polyline fill="none" stroke="#000000" points="259.0706,-304.5 369.0706,-304.5 "/>
<text text-anchor="middle" x="314.0706" y="-289.3" font-family="Times,serif" font-size="14.00" fill="#000000">num_threads</text>
<polyline fill="none" stroke="#000000" points="369.0706,-281.5 369.0706,-350.5 "/>
<text text-anchor="middle" x="415.0706" y="-335.3" font-family="Times,serif" font-size="14.00" fill="#000000">epi_merge</text>
<polyline fill="none" stroke="#000000" points="369.0706,-327.5 461.0706,-327.5 "/>
<text text-anchor="middle" x="415.0706" y="-312.3" font-family="Times,serif" font-size="14.00" fill="#000000">freesurfer</text>
<polyline fill="none" stroke="#000000" points="369.0706,-304.5 461.0706,-304.5 "/>
<text text-anchor="middle" x="415.0706" y="-289.3" font-family="Times,serif" font-size="14.00" fill="#000000"> </text>
<polyline fill="none" stroke="#000000" points="461.0706,-281.5 461.0706,-350.5 "/>
<text text-anchor="middle" x="536.0706" y="-335.3" font-family="Times,serif" font-size="14.00" fill="#000000">OUT</text>
<polyline fill="none" stroke="#000000" points="461.0706,-327.5 611.0706,-327.5 "/>
<text text-anchor="middle" x="536.0706" y="-312.3" font-family="Times,serif" font-size="14.00" fill="#000000">out_file</text>
<polyline fill="none" stroke="#000000" points="461.0706,-304.5 611.0706,-304.5 "/>
<text text-anchor="middle" x="536.0706" y="-289.3" font-family="Times,serif" font-size="14.00" fill="#000000">transform_outputs</text>
</g>
<!-- epi_reference_wfclip_bg_noise&#45;&gt;epi_reference_wfepi_merge -->
<g id="edge2" class="edge">
<title>epi_reference_wfclip_bg_noise:e&#45;&gt;epi_reference_wfepi_merge:w</title>
<path fill="none" stroke="#000000" d="M259.0706,-405C293.6817,-405 237.4387,-336.8594 249.3362,-319.8242"/>
<polygon fill="#000000" stroke="#000000" points="251.0429,-322.9142 259.0706,-316 248.4833,-316.399 251.0429,-322.9142"/>
</g>
<!-- epi_reference_wfclip_bg_noise&#45;&gt;epi_reference_wfepi_merge -->
<g id="edge3" class="edge">
<title>epi_reference_wfclip_bg_noise:e&#45;&gt;epi_reference_wfepi_merge:w</title>
<path fill="none" stroke="#000000" d="M259.0706,-405C259.0706,-405 259.0706,-331.0625 259.0706,-303.3359"/>
<polygon fill="#000000" stroke="#000000" points="262.5707,-303 259.0706,-293 255.5707,-303 262.5707,-303"/>
</g>
<!-- epi_reference_wfpost_merge -->
<g id="node8" class="node">
<title>epi_reference_wfpost_merge</title>
<polygon fill="none" stroke="#000000" points="485.5706,-175.5 485.5706,-244.5 708.5706,-244.5 708.5706,-175.5 485.5706,-175.5"/>
<text text-anchor="middle" x="521.5706" y="-229.3" font-family="Times,serif" font-size="14.00" fill="#000000">IN</text>
<polyline fill="none" stroke="#000000" points="485.5706,-221.5 557.5706,-221.5 "/>
<text text-anchor="middle" x="521.5706" y="-206.3" font-family="Times,serif" font-size="14.00" fill="#000000">in_file</text>
<polyline fill="none" stroke="#000000" points="485.5706,-198.5 557.5706,-198.5 "/>
<text text-anchor="middle" x="521.5706" y="-183.3" font-family="Times,serif" font-size="14.00" fill="#000000">in_xfms</text>
<polyline fill="none" stroke="#000000" points="557.5706,-175.5 557.5706,-244.5 "/>
<text text-anchor="middle" x="608.0706" y="-229.3" font-family="Times,serif" font-size="14.00" fill="#000000">post_merge</text>
<polyline fill="none" stroke="#000000" points="557.5706,-221.5 658.5706,-221.5 "/>
<text text-anchor="middle" x="608.0706" y="-206.3" font-family="Times,serif" font-size="14.00" fill="#000000">utility</text>
<polyline fill="none" stroke="#000000" points="557.5706,-198.5 658.5706,-198.5 "/>
<text text-anchor="middle" x="608.0706" y="-183.3" font-family="Times,serif" font-size="14.00" fill="#000000"> </text>
<polyline fill="none" stroke="#000000" points="658.5706,-175.5 658.5706,-244.5 "/>
<text text-anchor="middle" x="683.5706" y="-223.8" font-family="Times,serif" font-size="14.00" fill="#000000">OUT</text>
<polyline fill="none" stroke="#000000" points="658.5706,-210.5 708.5706,-210.5 "/>
<text text-anchor="middle" x="683.5706" y="-189.3" font-family="Times,serif" font-size="14.00" fill="#000000">out</text>
</g>
<!-- epi_reference_wfepi_merge&#45;&gt;epi_reference_wfpost_merge -->
<g id="edge4" class="edge">
<title>epi_reference_wfepi_merge:e&#45;&gt;epi_reference_wfpost_merge:w</title>
<path fill="none" stroke="#000000" d="M611.0706,-316C626.6262,-316 620.4381,-293.4188 611.0706,-281 575.9982,-234.5035 520.143,-291.4965 485.0706,-245 478.6305,-236.4621 473.6931,-223.1208 476.2909,-215.6163"/>
<polygon fill="#000000" stroke="#000000" points="478.5328,-218.3371 485.0706,-210 474.7607,-212.4404 478.5328,-218.3371"/>
</g>
<!-- epi_reference_wfepi_merge&#45;&gt;epi_reference_wfpost_merge -->
<g id="edge6" class="edge">
<title>epi_reference_wfepi_merge:e&#45;&gt;epi_reference_wfpost_merge:w</title>
<path fill="none" stroke="#000000" d="M611.0706,-293C616.4039,-293 614.2823,-285.2579 611.0706,-281 575.9982,-234.5035 520.143,-291.4965 485.0706,-245 472.0941,-227.7967 462.7994,-198.8253 475.1568,-189.7821"/>
<polygon fill="#000000" stroke="#000000" points="476.3882,-193.0718 485.0706,-187 474.4968,-186.3321 476.3882,-193.0718"/>
</g>
<!-- epi_reference_wfepi_merge&#45;&gt;epi_reference_wfoutputnode -->
<g id="edge5" class="edge">
<title>epi_reference_wfepi_merge:e&#45;&gt;epi_reference_wfoutputnode:w</title>
<path fill="none" stroke="#000000" d="M611.0706,-293C662.7868,-293 683.971,-284.7364 717.0706,-245 783.17,-165.647 675.9455,-21.7646 764.8757,-12.0216"/>
<polygon fill="#000000" stroke="#000000" points="765.2625,-15.5065 775.0706,-11.5 764.9048,-8.5156 765.2625,-15.5065"/>
</g>
<!-- epi_reference_wfpost_merge&#45;&gt;epi_reference_wfoutputnode -->
<g id="edge13" class="edge">
<title>epi_reference_wfpost_merge:e&#45;&gt;epi_reference_wfoutputnode:w</title>
<path fill="none" stroke="#000000" d="M709.0706,-193C715.1161,-193 752.4821,-114.3549 768.5599,-89.1638"/>
<polygon fill="#000000" stroke="#000000" points="771.2636,-91.3872 775.0706,-81.5 765.9287,-86.8551 771.2636,-91.3872"/>
</g>
</g>
</svg>
