<?xml version="1.0" encoding="UTF-8" standalone="no"?>
<!DOCTYPE svg PUBLIC "-//W3C//DTD SVG 1.1//EN"
 "http://www.w3.org/Graphics/SVG/1.1/DTD/svg11.dtd">
<!-- Generated by graphviz version 2.40.1 (20161225.0304)
 -->
<!-- Title: %3 Pages: 1 -->
<svg width="430pt" height="620pt"
 viewBox="0.00 0.00 429.98 620.00" xmlns="http://www.w3.org/2000/svg" xmlns:xlink="http://www.w3.org/1999/xlink">
<g id="graph0" class="graph" transform="scale(1 1) rotate(0) translate(4 616)">
<title>%3</title>
<polygon fill="#ffffff" stroke="transparent" points="-4,4 -4,-616 425.9815,-616 425.9815,4 -4,4"/>
<!-- inputnode (utility) -->
<g id="node1" class="node">
<title>inputnode (utility)</title>
<ellipse fill="none" stroke="#000000" cx="247.391" cy="-594" rx="94.7833" ry="18"/>
<text text-anchor="middle" x="247.391" y="-590.3" font-family="Times,serif" font-size="14.00" fill="#000000">inputnode (utility)</text>
</g>
<!-- validate_nii (header) -->
<g id="node2" class="node">
<title>validate_nii (header)</title>
<ellipse fill="none" stroke="#000000" cx="315.391" cy="-522" rx="106.6812" ry="18"/>
<text text-anchor="middle" x="315.391" y="-518.3" font-family="Times,serif" font-size="14.00" fill="#000000">validate_nii (header)</text>
</g>
<!-- inputnode (utility)&#45;&gt;validate_nii (header) -->
<g id="edge1" class="edge">
<title>inputnode (utility)&#45;&gt;validate_nii (header)</title>
<path fill="none" stroke="#000000" d="M264.2,-576.2022C272.4549,-567.4617 282.5445,-556.7786 291.5774,-547.2144"/>
<polygon fill="#000000" stroke="#000000" points="294.218,-549.5159 298.5397,-539.8425 289.1289,-544.7095 294.218,-549.5159"/>
</g>
<!-- per_run_avgs (images) -->
<g id="node3" class="node">
<title>per_run_avgs (images)</title>
<ellipse fill="none" stroke="#000000" cx="180.391" cy="-450" rx="116.1796" ry="18"/>
<text text-anchor="middle" x="180.391" y="-446.3" font-family="Times,serif" font-size="14.00" fill="#000000">per_run_avgs (images)</text>
</g>
<!-- inputnode (utility)&#45;&gt;per_run_avgs (images) -->
<g id="edge2" class="edge">
<title>inputnode (utility)&#45;&gt;per_run_avgs (images)</title>
<path fill="none" stroke="#000000" d="M227.3716,-576.3325C217.5098,-566.5663 206.2853,-553.6619 199.391,-540 189.648,-520.693 184.8961,-496.6276 182.5812,-478.2408"/>
<polygon fill="#000000" stroke="#000000" points="186.0444,-477.7115 181.4806,-468.15 179.0856,-478.4706 186.0444,-477.7115"/>
</g>
<!-- validate_nii (header)&#45;&gt;per_run_avgs (images) -->
<g id="edge3" class="edge">
<title>validate_nii (header)&#45;&gt;per_run_avgs (images)</title>
<path fill="none" stroke="#000000" d="M283.0551,-504.7542C264.7386,-494.9854 241.6292,-482.6604 221.9757,-472.1785"/>
<polygon fill="#000000" stroke="#000000" points="223.4015,-468.9723 212.9309,-467.3546 220.1074,-475.1488 223.4015,-468.9723"/>
</g>
<!-- outputnode (utility) -->
<g id="node4" class="node">
<title>outputnode (utility)</title>
<ellipse fill="none" stroke="#000000" cx="101.391" cy="-18" rx="101.2821" ry="18"/>
<text text-anchor="middle" x="101.391" y="-14.3" font-family="Times,serif" font-size="14.00" fill="#000000">outputnode (utility)</text>
</g>
<!-- validate_nii (header)&#45;&gt;outputnode (utility) -->
<g id="edge4" class="edge">
<title>validate_nii (header)&#45;&gt;outputnode (utility)</title>
<path fill="none" stroke="#000000" d="M325.5706,-504.0031C339.6605,-477.3554 363.391,-425.4342 363.391,-378 363.391,-378 363.391,-378 363.391,-162 363.391,-121.1184 373.1449,-101.0607 344.391,-72 323.7744,-51.1635 256.7761,-37.2467 198.3395,-28.7669"/>
<polygon fill="#000000" stroke="#000000" points="198.6851,-25.2811 188.2942,-27.3495 197.7071,-32.2124 198.6851,-25.2811"/>
</g>
<!-- per_run_avgs (images)&#45;&gt;outputnode (utility) -->
<g id="edge6" class="edge">
<title>per_run_avgs (images)&#45;&gt;outputnode (utility)</title>
<path fill="none" stroke="#000000" d="M132.9991,-433.5457C112.8201,-424.7748 90.1295,-412.3647 73.391,-396 40.9757,-364.3084 25.391,-351.3333 25.391,-306 25.391,-306 25.391,-306 25.391,-162 25.391,-116.3998 55.5676,-71.0908 77.8906,-43.812"/>
<polygon fill="#000000" stroke="#000000" points="80.7537,-45.8459 84.5241,-35.9447 75.4022,-41.3336 80.7537,-45.8459"/>
</g>
<!-- clip_avgs (nibabel) -->
<g id="node5" class="node">
<title>clip_avgs (nibabel)</title>
<ellipse fill="none" stroke="#000000" cx="180.391" cy="-378" rx="98.2828" ry="18"/>
<text text-anchor="middle" x="180.391" y="-374.3" font-family="Times,serif" font-size="14.00" fill="#000000">clip_avgs (nibabel)</text>
</g>
<!-- per_run_avgs (images)&#45;&gt;clip_avgs (nibabel) -->
<g id="edge5" class="edge">
<title>per_run_avgs (images)&#45;&gt;clip_avgs (nibabel)</title>
<path fill="none" stroke="#000000" d="M180.391,-431.8314C180.391,-424.131 180.391,-414.9743 180.391,-406.4166"/>
<polygon fill="#000000" stroke="#000000" points="183.8911,-406.4132 180.391,-396.4133 176.8911,-406.4133 183.8911,-406.4132"/>
</g>
<!-- n4_avgs (ants) -->
<g id="node6" class="node">
<title>n4_avgs (ants)</title>
<ellipse fill="none" stroke="#000000" cx="180.391" cy="-306" rx="78.7863" ry="18"/>
<text text-anchor="middle" x="180.391" y="-302.3" font-family="Times,serif" font-size="14.00" fill="#000000">n4_avgs (ants)</text>
</g>
<!-- clip_avgs (nibabel)&#45;&gt;n4_avgs (ants) -->
<g id="edge7" class="edge">
<title>clip_avgs (nibabel)&#45;&gt;n4_avgs (ants)</title>
<path fill="none" stroke="#000000" d="M180.391,-359.8314C180.391,-352.131 180.391,-342.9743 180.391,-334.4166"/>
<polygon fill="#000000" stroke="#000000" points="183.8911,-334.4132 180.391,-324.4133 176.8911,-334.4133 183.8911,-334.4132"/>
</g>
<!-- n4_avgs (ants)&#45;&gt;outputnode (utility) -->
<g id="edge9" class="edge">
<title>n4_avgs (ants)&#45;&gt;outputnode (utility)</title>
<path fill="none" stroke="#000000" d="M132.4989,-291.6332C113.4185,-283.2967 93.4077,-270.6489 82.391,-252 43.5705,-186.2853 71.7094,-91.5031 89.6199,-45.34"/>
<polygon fill="#000000" stroke="#000000" points="92.8941,-46.5786 93.3668,-35.9943 86.3968,-43.9737 92.8941,-46.5786"/>
</g>
<!-- clip_bg_noise (nibabel) -->
<g id="node7" class="node">
<title>clip_bg_noise (nibabel)</title>
<ellipse fill="none" stroke="#000000" cx="209.391" cy="-234" rx="117.7793" ry="18"/>
<text text-anchor="middle" x="209.391" y="-230.3" font-family="Times,serif" font-size="14.00" fill="#000000">clip_bg_noise (nibabel)</text>
</g>
<!-- n4_avgs (ants)&#45;&gt;clip_bg_noise (nibabel) -->
<g id="edge8" class="edge">
<title>n4_avgs (ants)&#45;&gt;clip_bg_noise (nibabel)</title>
<path fill="none" stroke="#000000" d="M187.7089,-287.8314C190.8786,-279.9617 194.661,-270.5712 198.1723,-261.8533"/>
<polygon fill="#000000" stroke="#000000" points="201.4849,-262.9968 201.9745,-252.4133 194.9918,-260.3815 201.4849,-262.9968"/>
</g>
<!-- epi_merge (freesurfer) -->
<g id="node8" class="node">
<title>epi_merge (freesurfer)</title>
<ellipse fill="none" stroke="#000000" cx="209.391" cy="-162" rx="116.1796" ry="18"/>
<text text-anchor="middle" x="209.391" y="-158.3" font-family="Times,serif" font-size="14.00" fill="#000000">epi_merge (freesurfer)</text>
</g>
<!-- clip_bg_noise (nibabel)&#45;&gt;epi_merge (freesurfer) -->
<g id="edge10" class="edge">
<title>clip_bg_noise (nibabel)&#45;&gt;epi_merge (freesurfer)</title>
<path fill="none" stroke="#000000" d="M209.391,-215.8314C209.391,-208.131 209.391,-198.9743 209.391,-190.4166"/>
<polygon fill="#000000" stroke="#000000" points="212.8911,-190.4132 209.391,-180.4133 205.8911,-190.4133 212.8911,-190.4132"/>
</g>
<!-- epi_merge (freesurfer)&#45;&gt;outputnode (utility) -->
<g id="edge12" class="edge">
<title>epi_merge (freesurfer)&#45;&gt;outputnode (utility)</title>
<path fill="none" stroke="#000000" d="M166.786,-145.167C149.9386,-136.4684 131.8895,-124.2177 120.391,-108 107.6693,-90.057 103.1368,-65.3692 101.6641,-46.3883"/>
<polygon fill="#000000" stroke="#000000" points="105.1504,-46.0366 101.1199,-36.2384 98.1604,-46.4115 105.1504,-46.0366"/>
</g>
<!-- post_merge (utility) -->
<g id="node9" class="node">
<title>post_merge (utility)</title>
<ellipse fill="none" stroke="#000000" cx="232.391" cy="-90" rx="102.8821" ry="18"/>
<text text-anchor="middle" x="232.391" y="-86.3" font-family="Times,serif" font-size="14.00" fill="#000000">post_merge (utility)</text>
</g>
<!-- epi_merge (freesurfer)&#45;&gt;post_merge (utility) -->
<g id="edge11" class="edge">
<title>epi_merge (freesurfer)&#45;&gt;post_merge (utility)</title>
<path fill="none" stroke="#000000" d="M215.1949,-143.8314C217.6818,-136.0463 220.6441,-126.7729 223.4035,-118.1347"/>
<polygon fill="#000000" stroke="#000000" points="226.8,-119.0041 226.509,-108.4133 220.1319,-116.874 226.8,-119.0041"/>
</g>
<!-- post_merge (utility)&#45;&gt;outputnode (utility) -->
<g id="edge13" class="edge">
<title>post_merge (utility)&#45;&gt;outputnode (utility)</title>
<path fill="none" stroke="#000000" d="M201.0132,-72.7542C183.2394,-62.9854 160.8148,-50.6604 141.7436,-40.1785"/>
<polygon fill="#000000" stroke="#000000" points="143.4162,-37.104 132.9668,-35.3546 140.0445,-43.2385 143.4162,-37.104"/>
</g>
</g>
</svg>
